<?xml version="1.0" encoding="UTF-8" standalone="no"?>
<!-- Created with Inkscape (http://www.inkscape.org/) -->

<svg
   xmlns:dc="http://purl.org/dc/elements/1.1/"
   xmlns:cc="http://creativecommons.org/ns#"
   xmlns:rdf="http://www.w3.org/1999/02/22-rdf-syntax-ns#"
   xmlns:svg="http://www.w3.org/2000/svg"
   xmlns="http://www.w3.org/2000/svg"
   xmlns:sodipodi="http://sodipodi.sourceforge.net/DTD/sodipodi-0.dtd"
   xmlns:inkscape="http://www.inkscape.org/namespaces/inkscape"
   width="170.16577mm"
   height="170.16577mm"
   viewBox="0 0 170.16577 170.16577"
   version="1.1"
   id="svg8"
   inkscape:version="0.92.1 r15371"
   sodipodi:docname="blockbench_file.svg">
  <defs
     id="defs2" />
  <sodipodi:namedview
     id="base"
     pagecolor="#ffffff"
     bordercolor="#666666"
     borderopacity="1.0"
     inkscape:pageopacity="0.0"
     inkscape:pageshadow="2"
     inkscape:zoom="0.7"
     inkscape:cx="-281.75731"
     inkscape:cy="75.246821"
     inkscape:document-units="mm"
     inkscape:current-layer="layer1"
     showgrid="false"
     fit-margin-top="0"
     fit-margin-left="0"
     fit-margin-right="0"
     fit-margin-bottom="0"
     inkscape:window-width="2560"
     inkscape:window-height="1377"
     inkscape:window-x="-8"
     inkscape:window-y="-8"
     inkscape:window-maximized="1" />
  <metadata
     id="metadata5">
    <rdf:RDF>
      <cc:Work
         rdf:about="">
        <dc:format>image/svg+xml</dc:format>
        <dc:type
           rdf:resource="http://purl.org/dc/dcmitype/StillImage" />
        <dc:title></dc:title>
      </cc:Work>
    </rdf:RDF>
  </metadata>
  <g
     inkscape:label="Layer 1"
     inkscape:groupmode="layer"
     id="layer1"
     transform="translate(-59.085844,-39.360096)">
    <path
       style="fill:#000000;stroke-width:0.64595222"
       d="m 81.562703,203.43418 c -1.210466,-0.64917 -2.732001,-2.1707 -3.381177,-3.38117 -1.123327,-2.09456 -1.180329,-5.75073 -1.180329,-75.70874 0,-80.930857 -0.214001,-76.687961 3.998335,-79.270884 2.100803,-1.288175 2.906656,-1.308199 46.062968,-1.144562 l 43.92475,0.166553 3.87572,1.811315 c 3.2528,1.520197 6.43468,4.361933 19.79723,17.680913 16.95677,16.901466 18.64646,19.114451 19.93717,26.111806 0.43362,2.350848 0.60549,22.034779 0.49092,56.226629 -0.16569,49.44912 -0.2463,52.71631 -1.34179,54.38791 -0.64103,0.97814 -2.09443,2.34482 -3.22976,3.03708 -2.00836,1.22457 -3.75244,1.25873 -64.40872,1.26107 -59.148975,0.003 -62.457287,-0.0581 -64.545317,-1.17792 z m 121.887927,-56.14793 -0.16576,-46.34708 -20.49748,-0.32297 -20.49749,-0.32298 -2.11084,-2.110944 -2.11085,-2.110928 -0.18723,-20.65888 -0.18722,-20.658879 H 123.16105 88.628339 v 48.325101 48.32511 l 12.757561,-1.78635 c 7.01667,-0.98249 13.19358,-1.66585 13.72649,-1.51858 0.53292,0.14728 16.8109,2.46496 36.17332,5.1504 40.71401,5.64678 38.89021,5.3383 38.63161,6.53396 -0.20082,0.9285 -28.85343,15.11748 -30.52757,15.11748 -0.7635,0 -57.91126,-15.54153 -67.693137,-18.40938 l -3.068274,-0.89957 v 19.02078 19.02079 h 57.494041 57.49402 z m -53.22927,44.07048 c -0.20784,-0.54158 0.71165,-3.88931 2.0433,-7.4394 l 2.42116,-6.45471 3.03869,0.40309 c 2.80442,0.37203 3.48255,0.15178 8.79666,-2.85708 3.16689,-1.79312 5.85786,-2.97805 5.97992,-2.63318 0.12205,0.34487 -0.26417,2.81191 -0.85828,5.4823 -1.03838,4.66726 -1.19706,4.92951 -4.09765,6.77164 -3.90797,2.48193 -14.75094,7.71203 -15.98847,7.71203 -0.52661,0 -1.12751,-0.44311 -1.33533,-0.98469 z m -49.68199,-16.00198 c -0.26519,-0.69109 4.5034,-12.10985 5.03982,-12.06825 1.10178,0.0855 12.33203,3.21653 12.63945,3.52395 0.22858,0.22857 -0.15882,1.48356 -0.86086,2.78885 -1.20364,2.23787 -1.68187,2.49314 -8.38194,4.47417 -8.16346,2.41371 -8.0108,2.39053 -8.43647,1.28128 z m 55.59098,-25.03933 c -18.82951,-2.43462 -34.83393,-4.43917 -35.5654,-4.45458 -0.73146,-0.0154 -1.81126,-0.39134 -2.39953,-0.83543 -0.98226,-0.74151 -0.83431,-1.80961 1.81185,-13.08054 1.58482,-6.75019 3.10946,-13.14513 3.38812,-14.21094 0.4391,-1.67949 0.89157,-2.00079 3.39378,-2.40992 6.01696,-0.98378 74.46808,-5.0737 75.05716,-4.48463 0.36586,0.36587 -1.0856,9.01485 -3.74522,22.3171 l -4.3426,21.7197 -1.68134,-0.067 c -0.92475,-0.037 -17.08731,-2.05907 -35.91682,-4.49366 z M 202.9619,88.841959 c 0,-1.240195 -31.86706,-32.796466 -33.11945,-32.796466 -1.02878,0 -1.11603,1.312882 -1.11603,16.79476 v 16.794759 h 17.11774 c 13.09789,0 17.11774,-0.186238 17.11774,-0.793053 z"
       id="path4496"
       inkscape:connector-curvature="0" />
  </g>
</svg>
