<?xml version="1.0" encoding="UTF-8" standalone="no"?>
<!-- Created with Inkscape (http://www.inkscape.org/) -->

<svg
   xmlns:dc="http://purl.org/dc/elements/1.1/"
   xmlns:cc="http://creativecommons.org/ns#"
   xmlns:rdf="http://www.w3.org/1999/02/22-rdf-syntax-ns#"
   xmlns:svg="http://www.w3.org/2000/svg"
   xmlns="http://www.w3.org/2000/svg"
   xmlns:sodipodi="http://sodipodi.sourceforge.net/DTD/sodipodi-0.dtd"
   xmlns:inkscape="http://www.inkscape.org/namespaces/inkscape"
   width="16px"
   height="16px"
   viewBox="0 0 16 16"
   version="1.1"
   id="SVGRoot"
   inkscape:version="0.92.1 r15371"
   sodipodi:docname="bow.svg">
  <sodipodi:namedview
     id="base"
     pagecolor="#ffffff"
     bordercolor="#666666"
     borderopacity="1.0"
     inkscape:pageopacity="0.0"
     inkscape:pageshadow="2"
     inkscape:zoom="22.627417"
     inkscape:cx="7.0687316"
     inkscape:cy="6.6397244"
     inkscape:document-units="px"
     inkscape:current-layer="layer1"
     showgrid="false"
     inkscape:window-width="1920"
     inkscape:window-height="1017"
     inkscape:window-x="-8"
     inkscape:window-y="-8"
     inkscape:window-maximized="1"
     inkscape:grid-bbox="true" />
  <defs
     id="defs4485" />
  <metadata
     id="metadata4488">
    <rdf:RDF>
      <cc:Work
         rdf:about="">
        <dc:format>image/svg+xml</dc:format>
        <dc:type
           rdf:resource="http://purl.org/dc/dcmitype/StillImage" />
        <dc:title></dc:title>
      </cc:Work>
    </rdf:RDF>
  </metadata>
  <g
     id="layer1"
     inkscape:groupmode="layer"
     inkscape:label="Ebene 1">
    <path
       style="fill:#000000;stroke-width:0.06471994"
       d="m 0.30927281,15.703534 c -0.123344,-0.04977 -0.09721,-0.202893 0.07351,-0.430675 C 1.0246308,14.41646 1.1724358,13.50029 1.0596868,11.077091 0.91293381,7.9230866 1.3455858,6.2457216 2.8073658,4.3014544 L 3.0671058,3.9559805 2.6994388,3.6615612 C 2.4972218,3.4996306 2.2375548,3.278473 2.1224008,3.1700998 1.8766898,2.9388566 1.8797138,2.9371853 1.8062348,3.3448351 1.6657828,4.1240294 1.2172738,3.9116323 1.0779578,2.9999507 1.0320058,2.6992444 0.89022281,2.192903 0.76288281,1.8747477 c -0.330696,-0.8262369 -0.203674,-0.950988 0.70891699,-0.696247 0.259409,0.072411 0.690082,0.1765284 0.957051,0.231371 0.963589,0.1979467 1.057313,0.3671072 0.372761,0.6727848 L 2.4165958,2.25458 2.7948638,2.5781175 c 0.208046,0.1779456 0.488058,0.4050632 0.622247,0.5047057 l 0.243981,0.1811683 0.39592,-0.3582865 c 1.691881,-1.5310649 3.492041,-2.14806876 6.1382322,-2.10387556 3.865133,0.06455 3.973601,0.055327 4.635267,-0.3941385 0.595116,-0.4042577 0.688482,-0.3494748 0.895957,0.52570696 0.185896,0.7841593 -0.08869,1.4050533 -0.673068,1.5219284 -0.126477,0.025295 -1.00066,0.858357 -2.987692,2.8471533 l -2.8089042,2.811395 0.324469,0.311369 0.324468,0.311368 0.8434272,-0.03046 0.843427,-0.03046 0.891258,0.637654 c 1.039683,0.7438434 1.0584,0.6997454 -0.326002,0.7680674 -1.280618,0.0632 -1.144638,-0.1009447 -1.106957,1.336224 0.02927,1.116261 0.02299,1.215877 -0.07202,1.143341 -0.08758,-0.06687 -1.2689002,-1.059197 -1.4597202,-1.226194 -0.03369,-0.02948 -0.09834,-0.483287 -0.143669,-1.008456 l -0.08242,-0.9548524 -0.339766,-0.309112 -0.339766,-0.309112 -2.838555,2.8331894 c -2.304787,2.30043 -2.866194,2.894461 -2.985537,3.159032 -0.30793,0.682646 -1.766443,1.246048 -2.48016999,0.958053 z M 7.9624058,8.1988496 c -0.349331,-0.293963 -1.698129,-1.46537 -2.56213,-2.225163 -1.012723,-0.890576 -0.91787,-0.847932 -1.119764,-0.503425 -0.753876,1.286392 -1.037539,2.709872 -1.138527,5.7133794 -0.0371,1.103475 -0.08515,2.079128 -0.106771,2.168118 -0.02584,0.106354 0.844915,-0.720825 2.541021,-2.413861 L 8.1565658,8.3622366 Z M 13.736121,2.7651347 c -0.0075,-0.00584 -0.363128,0.043632 -0.79028,0.1099444 -0.427151,0.066312 -1.630573,0.1642313 -2.67427,0.2175977 -2.9420242,0.150432 -3.5995572,0.3001807 -4.7848432,1.0897169 -0.222551,0.1482449 -0.397295,0.2893473 -0.388319,0.313561 0.02529,0.068217 1.523685,1.4130119 1.574405,1.4130119 0.02471,0 0.310408,0.242241 0.634895,0.538312 0.324487,0.296072 0.793038,0.704474 1.041224,0.90756 l 0.451247,0.369248 2.4747912,-2.474164 c 1.361135,-1.3607905 2.468652,-2.4789451 2.46115,-2.4847879 z"
       id="path5091"
       inkscape:connector-curvature="0" />
  </g>
</svg>
