<?xml version="1.0" encoding="UTF-8" standalone="no"?>
<!-- Created with Inkscape (http://www.inkscape.org/) -->

<svg
   xmlns:dc="http://purl.org/dc/elements/1.1/"
   xmlns:cc="http://creativecommons.org/ns#"
   xmlns:rdf="http://www.w3.org/1999/02/22-rdf-syntax-ns#"
   xmlns:svg="http://www.w3.org/2000/svg"
   xmlns="http://www.w3.org/2000/svg"
   xmlns:sodipodi="http://sodipodi.sourceforge.net/DTD/sodipodi-0.dtd"
   xmlns:inkscape="http://www.inkscape.org/namespaces/inkscape"
   width="16px"
   height="16px"
   viewBox="0 0 16 16"
   version="1.1"
   id="SVGRoot"
   inkscape:version="0.92.1 r15371"
   sodipodi:docname="create_bitmap.svg">
  <sodipodi:namedview
     id="base"
     pagecolor="#ffffff"
     bordercolor="#666666"
     borderopacity="1.0"
     inkscape:pageopacity="0.0"
     inkscape:pageshadow="2"
     inkscape:zoom="22.627417"
     inkscape:cx="4.9729548"
     inkscape:cy="7.4222749"
     inkscape:document-units="px"
     inkscape:current-layer="layer1"
     showgrid="false"
     inkscape:window-width="1920"
     inkscape:window-height="1017"
     inkscape:window-x="1912"
     inkscape:window-y="-8"
     inkscape:window-maximized="1"
     inkscape:grid-bbox="true" />
  <defs
     id="defs6234" />
  <metadata
     id="metadata6237">
    <rdf:RDF>
      <cc:Work
         rdf:about="">
        <dc:format>image/svg+xml</dc:format>
        <dc:type
           rdf:resource="http://purl.org/dc/dcmitype/StillImage" />
        <dc:title />
      </cc:Work>
    </rdf:RDF>
  </metadata>
  <g
     id="layer1"
     inkscape:groupmode="layer"
     inkscape:label="Ebene 1">
    <path
       style="color:#000000;font-style:normal;font-variant:normal;font-weight:normal;font-stretch:normal;font-size:medium;line-height:normal;font-family:sans-serif;font-variant-ligatures:normal;font-variant-position:normal;font-variant-caps:normal;font-variant-numeric:normal;font-variant-alternates:normal;font-feature-settings:normal;text-indent:0;text-align:start;text-decoration:none;text-decoration-line:none;text-decoration-style:solid;text-decoration-color:#000000;letter-spacing:normal;word-spacing:normal;text-transform:none;writing-mode:lr-tb;direction:ltr;text-orientation:mixed;dominant-baseline:auto;baseline-shift:baseline;text-anchor:start;white-space:normal;shape-padding:0;clip-rule:nonzero;display:inline;overflow:visible;visibility:visible;opacity:1;isolation:auto;mix-blend-mode:normal;color-interpolation:sRGB;color-interpolation-filters:linearRGB;solid-color:#000000;solid-opacity:1;vector-effect:none;fill:#000000;fill-opacity:1;fill-rule:nonzero;stroke:none;stroke-width:1.30200005;stroke-linecap:butt;stroke-linejoin:miter;stroke-miterlimit:4;stroke-dasharray:none;stroke-dashoffset:0;stroke-opacity:1;color-rendering:auto;image-rendering:auto;shape-rendering:auto;text-rendering:auto;enable-background:accumulate"
       d="M 1.8769531 0.34960938 C 0.97212034 0.34960938 0.22460938 1.0971203 0.22460938 2.0019531 L 0.22460938 14.185547 C 0.22460938 15.09038 0.97212012 15.837891 1.8769531 15.837891 L 14.123047 15.837891 C 15.02788 15.837891 15.775391 15.09038 15.775391 14.185547 L 15.775391 2.0019531 C 15.775391 1.0971201 15.02788 0.34960938 14.123047 0.34960938 L 1.8769531 0.34960938 z M 12.761719 5.734375 C 13.463461 5.7359117 14.054467 5.8616787 14.474609 5.9804688 L 14.474609 14.185547 C 14.474609 14.391592 14.329092 14.537109 14.123047 14.537109 L 1.8769531 14.537109 C 1.6709076 14.537109 1.5253906 14.391592 1.5253906 14.185547 L 1.5253906 6.421875 C 2.7885913 6.9025775 2.5214525 7.9705272 4.6875 8.25 C 6.8963577 8.534997 7.5625007 7.90625 10.15625 6.40625 C 11.046022 5.8916832 11.963312 5.7326266 12.761719 5.734375 z M 10.292969 8.6308594 L 10.292969 10.484375 L 8.4394531 10.484375 L 8.4394531 11.955078 L 10.292969 11.955078 L 10.292969 13.808594 L 11.765625 13.808594 L 11.765625 11.955078 L 13.619141 11.955078 L 13.619141 10.484375 L 11.765625 10.484375 L 11.765625 8.6308594 L 10.292969 8.6308594 z "
       id="rect6793" />
  </g>
</svg>
