<?xml version="1.0" encoding="UTF-8" standalone="no"?>
<!-- Created with Inkscape (http://www.inkscape.org/) -->

<svg
   width="32"
   height="32"
   viewBox="0 0 32 32"
   version="1.1"
   id="SVGRoot"
   inkscape:version="1.1.2 (b8e25be833, 2022-02-05)"
   sodipodi:docname="format_bedrock_entity.svg"
   xmlns:inkscape="http://www.inkscape.org/namespaces/inkscape"
   xmlns:sodipodi="http://sodipodi.sourceforge.net/DTD/sodipodi-0.dtd"
   xmlns="http://www.w3.org/2000/svg"
   xmlns:svg="http://www.w3.org/2000/svg"
   xmlns:rdf="http://www.w3.org/1999/02/22-rdf-syntax-ns#"
   xmlns:cc="http://creativecommons.org/ns#"
   xmlns:dc="http://purl.org/dc/elements/1.1/">
  <sodipodi:namedview
     id="base"
     pagecolor="#ffffff"
     bordercolor="#666666"
     borderopacity="1.0"
     inkscape:pageopacity="0.0"
     inkscape:pageshadow="2"
     inkscape:zoom="45.254834"
     inkscape:cx="15.368524"
     inkscape:cy="14.086893"
     inkscape:document-units="px"
     inkscape:current-layer="layer1"
     showgrid="true"
     inkscape:window-width="3840"
     inkscape:window-height="2066"
     inkscape:window-x="-11"
     inkscape:window-y="-11"
     inkscape:window-maximized="1"
     inkscape:grid-bbox="true"
     inkscape:pagecheckerboard="1"
     inkscape:snap-page="true"
     inkscape:snap-grids="false">
    <inkscape:grid
       type="xygrid"
       id="grid4485" />
  </sodipodi:namedview>
  <defs
     id="defs5055" />
  <metadata
     id="metadata5058">
    <rdf:RDF>
      <cc:Work
         rdf:about="">
        <dc:format>image/svg+xml</dc:format>
        <dc:type
           rdf:resource="http://purl.org/dc/dcmitype/StillImage" />
        <dc:title />
      </cc:Work>
    </rdf:RDF>
  </metadata>
  <g
     id="layer1"
     inkscape:groupmode="layer"
     inkscape:label="Layer 1"
     transform="translate(0,16)">
    <path
       style="fill:#000000;fill-opacity:1;stroke:none;stroke-width:2.16024685px;stroke-linecap:butt;stroke-linejoin:miter;stroke-opacity:1"
       d="M 12.498047 21 L 2 23.998047 L 16 30 L 30 23.998047 L 19.501953 21 L 12.498047 21 z "
       transform="translate(0,-16)"
       id="path4489" />
    <path
       id="rect4484"
       style="opacity:1;fill:#000000;fill-opacity:1;stroke:none;stroke-width:0.755906;stroke-linecap:round;stroke-linejoin:round;stroke-miterlimit:4;stroke-dasharray:none;stroke-opacity:1"
       d="M 8 4 L 8 20 L 24 20 L 24 4 L 8 4 z M 10 6 L 22 6 L 22 18 L 20 18 L 19.333984 13 L 17.666016 13 L 17.666016 11.333984 L 14.333984 11.333984 L 14.333984 13 L 12.666016 13 L 12 18 L 10 18 L 10 6 z M 14.333984 11.333984 L 14.333984 8 L 11 8 L 11 11.333984 L 14.333984 11.333984 z M 17.666016 11.333984 L 21 11.333984 L 21 8 L 17.666016 8 L 17.666016 11.333984 z M 14.333984 16.333984 L 17.666016 16.333984 L 17.666016 18 L 14.333984 18 L 14.333984 16.333984 z "
       transform="translate(0,-16)" />
  </g>
</svg>
