<?xml version="1.0" encoding="UTF-8" standalone="no"?>
<!-- Created with Inkscape (http://www.inkscape.org/) -->

<svg
   xmlns:dc="http://purl.org/dc/elements/1.1/"
   xmlns:cc="http://creativecommons.org/ns#"
   xmlns:rdf="http://www.w3.org/1999/02/22-rdf-syntax-ns#"
   xmlns:svg="http://www.w3.org/2000/svg"
   xmlns="http://www.w3.org/2000/svg"
   xmlns:sodipodi="http://sodipodi.sourceforge.net/DTD/sodipodi-0.dtd"
   xmlns:inkscape="http://www.inkscape.org/namespaces/inkscape"
   width="16px"
   height="16px"
   viewBox="0 0 16 16"
   version="1.1"
   id="SVGRoot"
   inkscape:version="0.92.1 r15371"
   sodipodi:docname="format_java.svg">
  <sodipodi:namedview
     id="base"
     pagecolor="#ffffff"
     bordercolor="#666666"
     borderopacity="1.0"
     inkscape:pageopacity="0.0"
     inkscape:pageshadow="2"
     inkscape:zoom="32"
     inkscape:cx="14.497596"
     inkscape:cy="11.851109"
     inkscape:document-units="px"
     inkscape:current-layer="layer1"
     showgrid="true"
     inkscape:window-width="2560"
     inkscape:window-height="1377"
     inkscape:window-x="-8"
     inkscape:window-y="-8"
     inkscape:window-maximized="1"
     inkscape:grid-bbox="true">
    <inkscape:grid
       type="xygrid"
       id="grid4485" />
  </sodipodi:namedview>
  <defs
     id="defs5055" />
  <metadata
     id="metadata5058">
    <rdf:RDF>
      <cc:Work
         rdf:about="">
        <dc:format>image/svg+xml</dc:format>
        <dc:type
           rdf:resource="http://purl.org/dc/dcmitype/StillImage" />
        <dc:title></dc:title>
      </cc:Work>
    </rdf:RDF>
  </metadata>
  <g
     id="layer1"
     inkscape:groupmode="layer"
     inkscape:label="Layer 1">
    <path
       style="fill:#000000;fill-opacity:1;stroke:none;stroke-width:1.08012342px;stroke-linecap:butt;stroke-linejoin:miter;stroke-opacity:1"
       d="m 5,11 -4,1 7,3 7,-3 -4,-1 c -1,1 -5,1 -6,0 z"
       id="path4489"
       inkscape:connector-curvature="0"
       sodipodi:nodetypes="cccccc" />
    <path
       style="fill:#000000;fill-opacity:1;stroke:none;stroke-width:1px;stroke-linecap:butt;stroke-linejoin:miter;stroke-opacity:1"
       d="m 8.015625,2.71875 c -1,0 -3,0.5 -3,1.5 v 5 c -0.00781,2.257813 6,2.296875 6,0 V 8.734375 c 3,0 3,-4 0,-4 V 4.21875 c 0,-1 -2,-1.5 -3,-1.5 z m 0,0.7050781 c 1.104535,0 1.999951,0.3821258 2,0.8535157 -4.9e-5,0.4713897 -0.895465,0.8535156 -2,0.8535156 -1.104535,0 -1.9999511,-0.3821259 -2,-0.8535156 4.87e-5,-0.4713898 0.895465,-0.8535157 2,-0.8535157 z m 3,2.3105469 c 2,0 2,2 0,2 z"
       id="path4508-1"
       inkscape:connector-curvature="0" />
  </g>
</svg>
