<?xml version="1.0" encoding="UTF-8" standalone="no"?>
<!-- Created with Inkscape (http://www.inkscape.org/) -->

<svg
   xmlns:dc="http://purl.org/dc/elements/1.1/"
   xmlns:cc="http://creativecommons.org/ns#"
   xmlns:rdf="http://www.w3.org/1999/02/22-rdf-syntax-ns#"
   xmlns:svg="http://www.w3.org/2000/svg"
   xmlns="http://www.w3.org/2000/svg"
   xmlns:sodipodi="http://sodipodi.sourceforge.net/DTD/sodipodi-0.dtd"
   xmlns:inkscape="http://www.inkscape.org/namespaces/inkscape"
   width="362.63351mm"
   height="400.7597mm"
   viewBox="0 0 362.63351 400.7597"
   version="1.1"
   id="svg8"
   inkscape:version="0.92.1 r15371"
   sodipodi:docname="gizmo.svg">
  <defs
     id="defs2" />
  <sodipodi:namedview
     id="base"
     pagecolor="#ffffff"
     bordercolor="#666666"
     borderopacity="1.0"
     inkscape:pageopacity="0.0"
     inkscape:pageshadow="2"
     inkscape:zoom="0.061871843"
     inkscape:cx="-2331.3894"
     inkscape:cy="2167.129"
     inkscape:document-units="mm"
     inkscape:current-layer="layer1"
     showgrid="false"
     fit-margin-top="0"
     fit-margin-left="0"
     fit-margin-right="0"
     fit-margin-bottom="0"
     inkscape:window-width="2560"
     inkscape:window-height="1377"
     inkscape:window-x="1912"
     inkscape:window-y="-8"
     inkscape:window-maximized="1" />
  <metadata
     id="metadata5">
    <rdf:RDF>
      <cc:Work
         rdf:about="">
        <dc:format>image/svg+xml</dc:format>
        <dc:type
           rdf:resource="http://purl.org/dc/dcmitype/StillImage" />
        <dc:title></dc:title>
      </cc:Work>
    </rdf:RDF>
  </metadata>
  <g
     inkscape:label="Layer 1"
     inkscape:groupmode="layer"
     id="layer1"
     transform="translate(23.274876,107.51486)">
    <path
       style="fill:#000000;stroke-width:0.35277775"
       d="M 157.83991,293.16197 C 107.50274,289.95541 50.343428,286.36689 2.441312,283.3539 c -13.87299,-0.87245 -25.4419,-1.62556 -25.70871,-1.67354 -0.2668,-0.0479 6.63882,-6.93159 15.34583,-15.2969 42.570394,-40.88672 76.328277,-73.29691 119.900368,-115.13312 6.31236,-2.80495 10.94135,-2.2907 15.77116,-0.12132 9.98065,4.50469 21.36793,17.04448 30.71264,33.8211 1.98586,3.56519 3.81607,6.48806 4.06718,6.49525 0.34085,0.01 50.88188,-18.14601 54.50353,-19.57921 0.34773,-0.13762 0.58585,-0.38276 0.52916,-0.54476 -0.10163,-0.29035 -70.13947,-53.43022 -71.49464,-54.24499 -1.31933,0.79027 -6.23588,5.32533 -7.6177,6.45188 -10.35884,8.41946 -20.76,13.44899 -31.01525,14.99755 -9.105504,1.45595 -19.498642,-0.81774 -26.658256,-6.38778 C 53.168036,82.505654 49.098502,75.694127 17.697134,9.9542775 c 41.32546,-0.18907 82.650916,-0.37813 123.976376,-0.5672 8.91646,1.3214605 16.31924,4.3387705 21.48241,9.6254405 6.49612,6.6781 10.1933,15.59921 11.10453,26.7945 0.85443,10.49808 -1.15055,23.416399 -5.30112,34.155719 -0.99448,2.573218 -1.76008,4.884646 -1.70131,5.136512 21.12194,16.356671 39.84635,30.042561 62.89269,47.218711 5.16936,3.85295 9.49251,6.91171 9.60699,6.79724 0.30018,-0.30019 1.45743,-40.913753 1.175,-41.236573 -0.12997,-0.14854 -1.95072,-0.59507 -4.04612,-0.99228 -6.34883,-1.2035 -16.01935,-4.32359 -22.60222,-7.29235 -12.37442,-5.580658 -20.62586,-12.372113 -24.96704,-20.549449 -2.95909,-5.57057 -3.21268,-10.64853 -2.17184,-15.06617 0.84519,-3.57824 1.51659,-5.01792 11.15339,-23.91577 22.23908,-43.48666 44.84658,-87.90196 65.55401,-128.367461 4.9041,-9.583337 5.04349,-9.808257 5.46523,-8.819447 40.00451,93.794758 67.92059,159.891608 68.96675,163.292458 1.95829,6.208397 1.03187,10.928903 -1.12106,15.522223 -2.57058,5.465978 -6.061,9.245928 -12.63639,13.684613 -9.16891,6.189429 -23.08543,11.127193 -36.57706,12.978013 -3.13993,0.43074 -5.88331,0.89091 -6.09639,1.0226 -0.2601,0.16076 -0.96047,13.153003 -2.1318,39.546543 -0.95941,21.61891 -1.92454,40.41837 -2.14478,41.77656 -0.96524,5.9532 -5.06204,11.62627 -10.38123,14.37548 -0.58476,0.30224 -21.22226,8.11922 -45.86111,17.37106 -24.63884,9.25185 -44.91238,16.9302 -45.05226,17.06298 0.45078,3.72517 1.48936,7.85185 2.04964,11.1627 4.06524,24.15879 1.2555,42.70467 -7.51413,49.59791 -3.86476,3.04267 -7.86838,3.13179 -12.97838,2.89313 z"
       id="path4509"
       inkscape:connector-curvature="0"
       sodipodi:nodetypes="cccccccccccccccccccccccsscccccccscccccscccc" />
  </g>
</svg>
