<?xml version="1.0" encoding="UTF-8" standalone="no"?>
<!-- Created with Inkscape (http://www.inkscape.org/) -->

<svg
   xmlns:dc="http://purl.org/dc/elements/1.1/"
   xmlns:cc="http://creativecommons.org/ns#"
   xmlns:rdf="http://www.w3.org/1999/02/22-rdf-syntax-ns#"
   xmlns:svg="http://www.w3.org/2000/svg"
   xmlns="http://www.w3.org/2000/svg"
   xmlns:sodipodi="http://sodipodi.sourceforge.net/DTD/sodipodi-0.dtd"
   xmlns:inkscape="http://www.inkscape.org/namespaces/inkscape"
   width="361.20108mm"
   height="361.19534mm"
   viewBox="0 0 361.20108 361.19534"
   version="1.1"
   id="svg8"
   inkscape:version="0.92.1 r15371"
   sodipodi:docname="icon blockbench.svg">
  <defs
     id="defs2" />
  <sodipodi:namedview
     id="base"
     pagecolor="#ffffff"
     bordercolor="#666666"
     borderopacity="1.0"
     inkscape:pageopacity="0.0"
     inkscape:pageshadow="2"
     inkscape:zoom="0.35"
     inkscape:cx="104.11643"
     inkscape:cy="659.57848"
     inkscape:document-units="mm"
     inkscape:current-layer="layer1"
     showgrid="false"
     fit-margin-top="0"
     fit-margin-left="0"
     fit-margin-right="0"
     fit-margin-bottom="0"
     inkscape:window-width="1920"
     inkscape:window-height="1017"
     inkscape:window-x="-8"
     inkscape:window-y="-8"
     inkscape:window-maximized="1" />
  <metadata
     id="metadata5">
    <rdf:RDF>
      <cc:Work
         rdf:about="">
        <dc:format>image/svg+xml</dc:format>
        <dc:type
           rdf:resource="http://purl.org/dc/dcmitype/StillImage" />
        <dc:title></dc:title>
      </cc:Work>
    </rdf:RDF>
  </metadata>
  <g
     inkscape:label="Ebene 1"
     inkscape:groupmode="layer"
     id="layer1"
     transform="translate(86.889734,37.848528)">
    <path
       style="fill:#000000;stroke-width:0.35277775"
       d="m 80.685324,323.0064 c -49.97914,-3.72166 -96.14776,-27.89338 -127.52502,-66.76608 -30.83272,-38.19807 -44.75453,-87.21149 -38.63875,-136.03237 5.79925,-46.294152 29.40731,-88.655298 65.76195,-118.0000329 50.57914,-40.8264651 119.202629,-51.3075081 179.776806,-27.4577751 38.75854,15.2603117 71.41995,43.903752 91.65451,80.379285 5.41956,9.769481 10.78258,22.181391 14.01975,32.446571 1.44868,4.59386 1.85338,5.48464 3.06877,6.75506 1.3201,1.37981 1.35756,1.47689 0.65628,1.69947 -0.40908,0.12983 -0.74376,0.41015 -0.74376,0.62291 0,0.21277 0.55125,2.861135 1.22502,5.885262 2.79481,12.54421 4.02674,22.88599 4.31101,36.19008 0.21763,10.18547 -0.14965,17.70672 -1.30926,26.81111 -6.17919,48.51493 -31.6154,92.28528 -70.72538,121.7034 -27.80668,20.9159 -60.93799,33.23253 -96.30832,35.80287 -5.74768,0.41769 -19.368956,0.3962 -25.223606,-0.0398 z m 34.119536,-70.37939 c 6.44499,-3.2203 12.5099,-6.35229 13.47758,-6.95999 0.96767,-0.60771 2.57266,-1.58116 3.56663,-2.16325 0.99398,-0.58208 2.70782,-1.62345 3.80854,-2.31414 1.10072,-0.69069 3.65585,-2.11944 5.67807,-3.175 3.95125,-2.06247 5.40131,-3.50579 5.97004,-5.94231 0.47659,-2.04181 1.36985,-6.01431 1.95109,-8.67688 0.29649,-1.35819 0.87849,-3.97757 1.29334,-5.82083 2.20478,-9.79651 2.34525,-10.71108 1.78171,-11.6009 -0.25285,-0.39925 -0.58995,-0.32449 -1.84668,0.40952 -0.84556,0.49386 -3.28362,1.87739 -5.41793,3.0745 -2.1343,1.19712 -4.6743,2.65304 -5.64444,3.2354 -5.43944,3.26517 -6.50632,3.88432 -8.11388,4.70885 -0.97014,0.49759 -2.63702,1.45117 -3.70417,2.11906 -4.98392,3.11929 -7.18078,3.79963 -9.67634,2.99664 -2.4352,-0.78358 -8.91837,-2.47363 -9.489,-2.47363 -0.3368,0 -0.70182,0.27781 -0.81117,0.61736 -0.19123,0.59383 -0.797,2.2956 -2.29176,6.4382 -0.38506,1.06715 -1.02413,2.73402 -1.42016,3.70416 -0.39604,0.97014 -0.85373,2.24014 -1.01711,2.82222 -0.16337,0.58209 -0.79609,2.40771 -1.40603,4.05695 -0.60993,1.64923 -1.24223,3.39548 -1.40509,3.88055 -0.162867,0.48507 -0.793977,2.23132 -1.402477,3.88056 -1.036019,2.80799 -2.846409,9.26625 -2.818169,10.05334 0.0278,0.7759 1.71361,2.36597 3.016539,2.84529 0.79899,0.29394 1.974887,0.43027 2.791597,0.32364 0.83919,-0.10956 6.16052,-2.55731 13.12927,-6.03931 z M -20.750076,216.72302 c 0.7826,-0.27435 3.08978,-1.00327 5.12707,-1.61982 2.03729,-0.61655 4.57729,-1.40942 5.6444503,-1.76193 1.06715,-0.35251 3.60715,-1.14084 5.64444,-1.75186 15.8940497,-4.76688 16.1567297,-4.86438 17.8411797,-6.62236 1.39528,-1.4562 3.95906,-6.7891 4.71236,-9.80213 0.14667,-0.58665 0.45584,-1.42008 0.68703,-1.85208 0.2312,-0.432 0.3608,-0.78545 0.288,-0.78545 -0.15022,0 -5.16367,-1.31856 -6.77163,-1.78097 -1.90147,-0.54681 -5.2520397,-1.43556 -7.2319397,-1.91828 -1.06715,-0.26019 -3.1309,-0.80858 -4.58611004,-1.21864 -1.45521,-0.41007 -3.20145996,-0.89577 -3.88055996,-1.07934 -0.67909,-0.18357 -3.0258,-0.82495 -5.2149,-1.42527 -2.1891003,-0.60033 -4.2184603,-1.04116 -4.5096803,-0.97964 -0.6509,0.13751 -13.55875,27.81722 -13.55875,29.07552 0,1.95193 1.85929,3.96961 3.69237,4.00693 0.38157,0.008 1.33407,-0.21034 2.11667,-0.48468 z M 156.84517,196.18321 c 19.90992,-10.01901 36.49392,-18.47208 36.85334,-18.78458 1.36475,-1.18663 2.08833,-3.74735 1.36959,-4.84691 -0.14255,-0.21808 -2.08481,-0.66579 -4.31613,-0.99492 -5.30049,-0.78183 -21.81086,-3.19517 -27.86944,-4.07371 -2.61938,-0.37982 -6.35,-0.93471 -8.29028,-1.23308 -1.94028,-0.29838 -7.8934,-1.17433 -13.22916,-1.94657 -5.33576,-0.77224 -14.06701,-2.04293 -19.40277,-2.82376 -5.33577,-0.78082 -12.95577,-1.89008 -16.93334,-2.46502 -9.180966,-1.32708 -28.711646,-4.19023 -39.687486,-5.81811 -4.65667,-0.69064 -11.72104,-1.72494 -15.69861,-2.29842 -24.31817,-3.50621 -31.82476,-4.63309 -33.86667,-5.08408 -5.23851,-1.157 -8.7671497,-1.38241 -12.5236097,-0.80003 -1.94028,0.30081 -17.1009003,2.46958 -33.6902703,4.81948 -16.58938,2.3499 -30.85063,4.52187 -31.69167,4.82658 -2.53064,0.91687 -3.55441,3.43812 -2.34541,5.77608 0.74574,1.44209 2.60347,2.30171 8.46069,3.91495 0.77611,0.21376 1.80798,0.51908 2.29305,0.67847 0.48507,0.15939 1.43476,0.39982 2.11042,0.53428 0.67566,0.13446 2.18379,0.54352 3.35139,0.90903 1.1676,0.36551 2.75792,0.83946 3.53403,1.05322 0.77611,0.21376 1.80798,0.51059 2.29305,0.65961 0.48507,0.14903 1.59632,0.471 2.46945,0.71551 0.87312,0.2445 2.29229,0.66812 3.15371,0.94138 0.86141,0.27326 3.08391,0.90118 4.93888,1.39539 5.01459,1.33598 5.18527,1.38411 9.19352,2.59217 2.03729,0.61402 4.25979,1.27104 4.93889,1.46004 0.67909,0.18899 1.71097,0.48447 2.29305,0.65662 1.68972,0.49973 3.37314,0.97103 5.6444403,1.58027 1.16417,0.31226 2.59292,0.7105 3.175,0.88496 0.58209,0.17447 1.65365,0.48491 2.38125,0.68988 0.72761,0.20497 1.83886,0.51835 2.46945,0.69641 0.63059,0.17805 2.8134,0.82612 4.85069,1.44015 2.03729,0.61402 4.25979,1.27104 4.9388896,1.46004 0.6791,0.189 1.71097,0.48298 2.2930601,0.65329 0.58208,0.17032 2.01544,0.54822 3.18524,0.83978 1.1698,0.29156 2.83667,0.75537 3.70416,1.03069 0.8675,0.27532 2.29164,0.70064 3.16476,0.94514 0.87313,0.2445 1.98438,0.56648 2.46945,0.7155 0.48507,0.14903 1.59632,0.471 2.46944,0.71551 0.87313,0.2445 2.29229,0.66813 3.15371,0.94138 0.86142,0.27326 3.08392,0.90118 4.93889,1.39539 5.01459,1.33598 5.18526,1.38411 9.19351,2.59217 2.03729,0.61402 4.25979,1.27104 4.93889,1.46004 1.22359,0.34053 2.46097,0.6967 4.6743,1.34547 1.13239,0.33192 6.68869,1.88622 9.08403,2.54113 1.93869,0.53006 3.08765,0.86579 7.05556,2.06169 5.58891,1.68446 7.49444,2.22464 10.41718,2.95311 1.1698,0.29156 2.83668,0.75537 3.70417,1.03069 0.86749,0.27532 2.29163,0.70064 3.16476,0.94514 0.87312,0.2445 1.98437,0.56648 2.46944,0.7155 0.48507,0.14903 1.59632,0.471 2.46945,0.71551 0.87312,0.2445 2.29229,0.66813 3.15371,0.94138 0.86141,0.27326 3.00454,0.87786 4.762499,1.34357 1.757947,0.46569 4.863157,1.34355 6.900447,1.95078 2.03729,0.60724 4.25979,1.2587 4.93889,1.44769 1.27261,0.35418 2.78924,0.7856 4.93889,1.40491 2.85883,0.82364 3.40086,0.94514 4.36958,0.9795 0.68945,0.0244 12.70595,-5.84538 37.21805,-18.18029 z m 46.90894,-34.61207 c 0.39231,-0.98157 1.11033,-4.34328 2.50535,-11.72986 0.4214,-2.23132 1.13786,-5.96195 1.59214,-8.29028 0.45427,-2.32833 1.17319,-6.05896 1.59759,-8.29028 0.42441,-2.23132 1.14333,-5.96194 1.5976,-8.29027 0.45428,-2.32834 1.17016,-6.05896 1.59085,-8.29028 0.4207,-2.23132 1.12902,-5.88257 1.57405,-8.11389 0.44504,-2.23132 1.15398,-5.88258 1.57543,-8.1139 1.24893,-6.612212 2.12864,-11.204592 3.00723,-15.698612 0.4552,-2.32833 1.16207,-5.97958 1.57083,-8.11388 0.67499,-3.52444 1.16341,-6.0269 3.20171,-16.404168 1.5234,-7.755876 1.59497,-8.604557 0.83536,-9.905195 -0.37979,-0.650286 -1.21068,-1.48613 -1.84644,-1.857428 -1.30335,-0.761203 3.75572,-1.02144 -43.79828,2.25299 -11.1566,0.768213 -28.38097,1.953419 -38.27639,2.633797 -9.89541,0.680374 -26.00853,1.788385 -35.80693,2.46224 -9.798406,0.673859 -25.990906,1.784904 -35.983336,2.468993 -36.76715,2.517097 -33.13177,2.17642 -34.88012,3.268683 -1.96474,1.227448 -3.07404,3.309528 -3.72634,6.994108 -0.27208,1.53687 -0.64505,3.19119 -0.82881,3.67625 -0.18377,0.48507 -0.44858,1.81399 -0.58848,2.95315 -0.13989,1.13915 -0.45874,2.65048 -0.70854,3.3585 -0.24981,0.70802 -0.5734,2.15403 -0.71909,3.21335 -0.14569,1.05933 -0.46319,2.48808 -0.70556,3.175 -0.24236,0.68693 -0.55986,2.11568 -0.70555,3.175 -0.1457,1.05933 -0.4632,2.48808 -0.70556,3.175 -0.24236,0.68693 -0.55986,2.11568 -0.70555,3.175 -0.1457,1.05933 -0.4632,2.48808 -0.70556,3.175 -0.24236,0.686935 -0.55986,2.115685 -0.70555,3.175002 -0.1457,1.05932 -0.4632,2.48807 -0.70556,3.175 -0.24236,0.68693 -0.55986,2.11569 -0.70556,3.17501 -0.14569,1.05932 -0.46319,2.48807 -0.70555,3.175 -0.24236,0.68692 -0.55986,2.11567 -0.70556,3.175 -0.14569,1.05932 -0.46319,2.48807 -0.70555,3.175 -0.24236,0.68692 -0.55986,2.11567 -0.70556,3.175 -0.14569,1.05932 -0.46319,2.48807 -0.70555,3.175 -0.24236,0.68692 -0.55967,2.11887 -0.70514,3.18211 -0.14546,1.06324 -0.41636,2.33004 -0.602,2.81511 -0.18564,0.48507 -0.56307,2.15194 -0.83873,3.70417 -0.46694,2.62926 -0.45739,2.88252 0.13954,3.70416 1.26003,1.73435 2.78137,2.12732 13.7538,3.55268 5.76264,0.74859 14.76378,1.9272 20.00253,2.61913 9.36297,1.23667 20.40973,2.68799 41.53958,5.45746 5.86934,0.76928 14.957766,1.96476 20.196516,2.6566 9.12981,1.20571 18.58409,2.44775 41.62777,5.46881 15.09035,1.97837 28.64693,3.77112 38.62917,5.1084 11.24147,1.50598 11.44886,1.5107 11.9438,0.27234 z"
       id="path4496"
       inkscape:connector-curvature="0" />
  </g>
</svg>
