<!-- Generated by IcoMoon.io -->
<svg version="1.1" xmlns="http://www.w3.org/2000/svg" width="32" height="32" viewBox="0 0 32 32">
<path d="M26.035 0c-0 0-0 0-0 0-1.308 0-2.368 1.060-2.368 2.367v27.266c0 1.307 1.060 2.367 2.368 2.367 0 0 0 0 0 0h3.599c1.307-0.001 2.366-1.060 2.367-2.367v-27.266c-0-1.307-1.060-2.367-2.367-2.367h-0zM16.261 0.013c-0.078-0.008-0.169-0.013-0.261-0.013-0.736 0-1.403 0.298-1.886 0.781l-13.334 13.334c-0.482 0.483-0.781 1.149-0.781 1.885s0.298 1.403 0.781 1.885l13.334 13.334c0.483 0.482 1.149 0.78 1.885 0.78 1.473 0 2.666-1.193 2.667-2.666v-26.667c0 0 0-0 0-0 0-1.104-0.671-2.052-1.628-2.457l-0.017-0.007c-0.222-0.095-0.48-0.162-0.749-0.189l-0.011-0.001z"></path>
</svg>
