<!-- Generated by IcoMoon.io -->
<svg version="1.1" xmlns="http://www.w3.org/2000/svg" width="32" height="32" viewBox="0 0 32 32">
<path d="M15.583 0.033c-0.579 0.094-1.083 0.363-1.469 0.75l-13.333 13.333c-0.482 0.483-0.781 1.149-0.781 1.885s0.298 1.403 0.781 1.885l13.333 13.333c0.483 0.483 1.149 0.781 1.886 0.781s1.403-0.299 1.886-0.781l13.333-13.333c0.482-0.483 0.781-1.149 0.781-1.885s-0.298-1.403-0.781-1.885l-13.333-13.333c-0.483-0.483-1.15-0.783-1.887-0.783-0.147 0-0.291 0.012-0.431 0.035l0.015-0.002z"></path>
</svg>
