<!-- Generated by IcoMoon.io -->
<svg version="1.1" xmlns="http://www.w3.org/2000/svg" width="32" height="32" viewBox="0 0 32 32">
<path d="M2.666 0c-1.472 0.001-2.666 1.194-2.666 2.667 0 0.736 0.298 1.403 0.78 1.885l11.448 11.448-11.448 11.448c-0.482 0.483-0.78 1.149-0.78 1.885 0 1.473 1.193 2.666 2.666 2.667h26.667c0 0 0 0 0 0 1.473 0 2.667-1.194 2.667-2.667 0-0.736-0.298-1.403-0.78-1.885l-11.448-11.448 11.448-11.448c0.482-0.483 0.78-1.149 0.78-1.885 0-1.473-1.194-2.667-2.667-2.667-0 0-0 0-0 0v0z"></path>
</svg>
