<!-- Generated by IcoMoon.io -->
<svg version="1.1" xmlns="http://www.w3.org/2000/svg" width="32" height="32" viewBox="0 0 32 32">
<path d="M15.999 0c-0.736 0-1.403 0.299-1.885 0.781l-13.333 13.333c-0.482 0.483-0.781 1.149-0.781 1.885s0.298 1.403 0.781 1.885l13.333 13.336c0.483 0.483 1.149 0.781 1.886 0.781s1.403-0.299 1.886-0.781l13.333-13.336c0.482-0.483 0.781-1.149 0.781-1.885s-0.298-1.403-0.781-1.885l-13.333-13.333c-0.483-0.483-1.149-0.781-1.886-0.781-0 0-0.001 0-0.001 0h0zM15.999 6.437l9.563 9.562-9.563 9.565z"></path>
</svg>
