<?xml version="1.0" encoding="UTF-8" standalone="no"?><!DOCTYPE svg PUBLIC "-//W3C//DTD SVG 1.1//EN" "http://www.w3.org/Graphics/SVG/1.1/DTD/svg11.dtd"><svg width="100%" height="100%" viewBox="0 0 32 33" version="1.1" xmlns="http://www.w3.org/2000/svg" xmlns:xlink="http://www.w3.org/1999/xlink" xml:space="preserve" xmlns:serif="http://www.serif.com/" style="fill-rule:evenodd;clip-rule:evenodd;stroke-linejoin:round;stroke-miterlimit:2;"><rect id="keyframe_bezier_discontinuous_blank" x="0" y="0.981" width="32" height="32" style="fill:none;"/><path d="M2.666,0.981l26.667,0c1.473,0 2.667,1.194 2.667,2.667c0,0.736 -0.298,1.402 -0.78,1.885l-11.448,11.448l11.448,11.448c0.482,0.482 0.78,1.149 0.78,1.885c0,1.473 -1.194,2.667 -2.667,2.667l-26.667,0c-1.473,-0.001 -2.666,-1.194 -2.666,-2.667c0,-0.736 0.298,-1.402 0.78,-1.885l11.448,-11.448l-11.448,-11.448c-0.482,-0.482 -0.78,-1.149 -0.78,-1.885c0,-1.473 1.194,-2.666 2.666,-2.667Zm23.449,28l-10.115,-10.115l-10.115,10.115l20.23,0Zm-10.115,-13.885l10.115,-10.115l-20.23,-0l10.115,10.115Z" style="fill:#fff;"/></svg>