<?xml version="1.0" encoding="UTF-8" standalone="no"?><!DOCTYPE svg PUBLIC "-//W3C//DTD SVG 1.1//EN" "http://www.w3.org/Graphics/SVG/1.1/DTD/svg11.dtd"><svg width="100%" height="100%" viewBox="0 0 32 33" version="1.1" xmlns="http://www.w3.org/2000/svg" xmlns:xlink="http://www.w3.org/1999/xlink" xml:space="preserve" xmlns:serif="http://www.serif.com/" style="fill-rule:evenodd;clip-rule:evenodd;stroke-linejoin:round;stroke-miterlimit:2;"><rect id="keyframe_step_molang_blank" x="0" y="0.198" width="32" height="32" style="fill:none;"/><clipPath id="_clip1"><rect x="0" y="0.198" width="32" height="32"/></clipPath><g clip-path="url(#_clip1)"><path d="M10.714,25.574l-10.046,-10.046c-0.414,-0.413 -0.669,-0.985 -0.669,-1.616c-0,-0.631 0.256,-1.202 0.669,-1.616l11.428,-11.429c0.414,-0.414 0.986,-0.669 1.616,-0.669c0.079,0 0.157,0.004 0.224,0.011l0.009,0c0.231,0.023 0.452,0.081 0.642,0.162l0.015,0.006c0.82,0.347 1.395,1.16 1.395,2.106l0,8.429l-1.284,0l-0.803,0.081l-0.755,0.234l-1.27,0.856l-0.856,1.271l-0.234,0.755l-0.081,0.803l-0,10.662Zm9.57,-13.685l0,-9.661c0,-1.12 0.908,-2.029 2.03,-2.029l3.085,0c1.12,0 2.029,0.909 2.029,2.029l0,8.762l-0.465,0.062l-0.956,0.397l-0.822,0.629l-0.642,0.834l-1.685,2.917l-1.684,-2.918l-0.642,-0.835l-0.246,-0.189Z" style="fill:#fff;"/><path d="M18.752,23.862c-0.057,-0.098 -0.172,-0.146 -0.281,-0.116c-0.109,0.029 -0.185,0.128 -0.185,0.241c0,1.732 0,5.428 0,7.209c0,0.265 -0.105,0.52 -0.293,0.707c-0.188,0.188 -0.442,0.293 -0.707,0.293c-0.763,-0 -1.809,-0 -2.572,-0c-0.552,-0 -1,-0.448 -1,-1c0,-3.189 0,-13.096 0,-16.285c0,-0.552 0.448,-1 1,-1c0.917,-0 2.242,-0 2.994,-0c0.357,-0 0.687,0.191 0.866,0.5c0.674,1.167 2.372,4.109 3.416,5.917c0.179,0.309 0.509,0.5 0.866,0.5c0.357,0 0.687,-0.191 0.866,-0.5c1.044,-1.808 2.743,-4.75 3.417,-5.917c0.179,-0.309 0.509,-0.5 0.866,-0.5c0.752,-0 2.078,-0 2.995,-0c0.265,-0 0.52,0.105 0.707,0.293c0.188,0.188 0.293,0.442 0.293,0.707c0,3.189 0,13.096 0,16.285c-0,0.552 -0.448,1 -1,1c-0.763,0 -1.809,0 -2.572,0c-0.552,0 -1,-0.448 -1,-1c-0,-1.781 -0,-5.479 -0,-7.211c-0,-0.113 -0.076,-0.212 -0.185,-0.241c-0.109,-0.029 -0.225,0.018 -0.281,0.116c-0.76,1.316 -2.277,3.944 -3.239,5.61c-0.179,0.309 -0.509,0.5 -0.866,0.5c-0.357,-0 -0.687,-0.191 -0.866,-0.5c-0.962,-1.666 -2.478,-4.293 -3.238,-5.609Z" style="fill:#fff;"/></g></svg>