<?xml version="1.0" standalone="no"?>
<!DOCTYPE svg PUBLIC "-//W3C//DTD SVG 1.1//EN" "http://www.w3.org/Graphics/SVG/1.1/DTD/svg11.dtd" >
<svg xmlns="http://www.w3.org/2000/svg">
<metadata>Generated by IcoMoon</metadata>
<defs>
<font id="icomoon" horiz-adv-x="1024">
<font-face units-per-em="1024" ascent="960" descent="-64" />
<missing-glyph horiz-adv-x="1024" />
<glyph unicode="&#x20;" horiz-adv-x="512" d="" />
<glyph unicode="&#xe900;" glyph-name="vertexsnap" d="M343.431 844.447c-99.848-17.565-183.235-61.631-207.082-109.435-23.554-47.215 24.441-70.183 68.267-32.669 12.017 10.286 24.104 18.702 26.86 18.702s8.602 3.108 12.991 6.908c99.631 86.242 395.697 31.37 508.761-94.292 23.705-26.346 23.705-26.346-26.719-27.778-100.88-2.864-100.631-29.189 0.934-98.636 56.563-38.676 79.331-57.771 103.967-87.194 28.706-34.283 33.212-37.672 50.089-37.672 30.971 0 33.502 5.146 39.781 80.875 5.384 64.937 16.657 128.878 34.164 193.783 16.91 62.69-36.291 72.503-72.742 13.417-26.338-42.692-23.797-42.471-51.467-4.474-89.612 123.057-321.18 207.777-487.803 178.465zM17.014 630.45c-14.775-14.775-14.775-14.775-14.775-146.975 0-176.344-14.594-161.751 161.75-161.751s161.751-14.594 161.751 161.751c0 176.344 14.594 161.75-161.751 161.75-132.2 0-132.2 0-146.975-14.775zM714.563 291.784c-14.775-14.775-14.775-14.775-14.775-146.975 0-176.344-14.594-161.75 161.751-161.75s161.75-14.594 161.75 161.75c0 176.344 14.594 161.751-161.75 161.751-132.2 0-132.2 0-146.975-14.775z" />
<glyph unicode="&#xe901;" glyph-name="create_bitmap" d="M233.975 795.371c-41.079 0-75.024-33.945-75.024-75.024v-553.202c0-41.079 33.945-75.024 75.024-75.024h556.032c41.079 0 75.024 33.945 75.024 75.024v553.202c0 41.079-33.945 75.024-75.024 75.024h-556.032zM728.208 550.872c31.861-0.066 58.699-5.78 77.775-11.178v-372.557c0-9.353-6.613-15.966-15.966-15.966h-556.032c-9.353 0-15.966 6.613-15.966 15.966v352.515c57.355-21.823 45.226-70.314 143.573-83.005 100.291-12.944 130.54 15.61 248.313 83.71 40.403 23.361 82.046 30.584 118.3 30.508zM616.108 419.361v-84.155h-84.155v-66.783h84.155v-84.155h66.872v84.155h84.155v66.783h-84.155v84.155h-66.872z" />
<glyph unicode="&#xe902;" glyph-name="objects" d="M405.375 850.625c-127.304-0.010-230.5-101.945-230.5-227.688 0-0.022 0-0.043 0-0.065v0.003c0.095-14.736 1.592-29.067 4.366-42.945l-0.241 1.445 128.875 50.875 175.75-91.75 113.125 208.625c-41.829 61.414-111.864 101.324-191.348 101.5h-0.027zM738.75 843.75l-65.375-127.625-0.125-0.5-155.625-286.75-214.5 112-167.75-66.25-93-38 2.875-322.375 257.375-121.625 243.25 141.375v170.875l164-108.625 288.5 192.25-259.625 455.25z" />
<glyph unicode="&#xe903;" glyph-name="bow" d="M19.793-45.026c-7.894 3.185-6.221 12.985 4.705 27.563 41.078 54.81 50.538 113.444 43.322 268.529-9.392 201.856 18.298 309.208 111.851 433.641l16.623 22.11-23.531 18.843c-12.942 10.364-29.561 24.518-36.93 31.454-15.726 14.8-15.532 14.907-20.235-11.183-8.989-49.868-37.694-36.275-46.61 22.073-2.941 19.245-12.015 51.651-20.165 72.013-21.165 52.879-13.035 60.863 45.371 44.56 16.602-4.634 44.165-11.298 61.251-14.808 61.67-12.669 67.668-23.495 23.857-43.058l-24.641-11.003 24.209-20.706c13.315-11.389 31.236-25.924 39.824-32.301l15.615-11.595 25.339 22.93c108.28 97.988 223.491 137.476 392.847 134.648 247.369-4.131 254.31-3.541 296.657 25.225 38.087 25.872 44.063 22.366 57.341-33.645 11.897-50.186-5.676-89.923-43.076-97.403-8.095-1.619-64.042-54.935-191.212-182.218l-179.77-179.929 41.532-39.855 107.959 3.899 57.041-40.81c66.54-47.606 67.738-44.784-20.864-49.156-81.96-4.045-73.257 6.46-70.845-85.518 1.873-71.441 1.471-77.816-4.609-73.174-5.605 4.28-81.21 67.789-93.422 78.476-2.156 1.887-6.294 30.93-9.195 64.541l-5.275 61.111-43.49 39.566-181.668-181.324c-147.506-147.228-183.436-185.246-191.074-202.178-19.708-43.689-113.052-79.747-158.731-61.315zM509.594 435.274c-22.357 18.814-108.68 93.784-163.976 142.41-64.814 56.997-58.744 54.268-71.665 32.219-48.248-82.329-66.402-173.432-72.866-365.656-2.374-70.622-5.45-133.064-6.833-138.76-1.654-6.807 54.075 46.133 162.625 154.487l165.141 164.842zM879.112 783.031c-0.48 0.374-23.24-2.792-50.578-7.036s-104.357-10.511-171.153-13.926c-188.29-9.628-230.372-19.212-306.23-69.742-14.243-9.488-25.427-18.518-24.852-20.068 1.619-4.366 97.516-90.433 100.762-90.433 1.581 0 19.866-15.503 40.633-34.452s50.754-45.086 66.638-58.084l28.88-23.632 158.387 158.346c87.113 87.091 157.994 158.652 157.514 159.026z" />
<glyph unicode="&#xe904;" glyph-name="bb_interface" d="M35.75 808.326c-16.933 0-31.125-14.317-31.125-31.25v-657.125c0-16.933 14.192-31.125 31.125-31.125h954.5c16.933 0 31.125 14.192 31.125 31.125v657.125c0 16.933-14.192 31.25-31.125 31.25zM42.5 770.326h941v-27.125h-211.375v-0.25l-506.25-3.75h-223.375zM772.125 710.355v-583.654h-506.25v579.779zM518.5 397.951l-217.625-75.625 26.125-22.625 164.375-141.875 252 169.75z" />
<glyph unicode="&#xe905;" glyph-name="blockbench" d="M475.080-63.035c-141.692 10.551-272.582 79.079-361.537 189.284-87.412 108.293-126.88 247.247-109.542 385.656 16.441 131.245 83.371 251.341 186.437 334.534 143.393 115.744 337.943 145.458 509.673 77.844 109.882-43.263 202.478-124.468 259.843-227.878 15.365-27.697 30.569-62.885 39.746-91.987 4.107-13.024 5.254-15.549 8.7-19.151 3.743-3.912 3.849-4.187 1.861-4.818-1.16-0.368-2.109-1.163-2.109-1.766s1.563-8.111 3.473-16.685c7.923-35.563 11.416-64.882 12.222-102.6 0.617-28.876-0.424-50.199-3.712-76.010-17.518-137.541-89.631-261.632-200.509-345.033-78.833-59.297-172.761-94.215-273.037-101.502-16.295-1.184-54.912-1.123-71.51 0.113zM571.81 136.493c18.272 9.13 35.466 18.009 38.209 19.732s7.294 4.483 10.112 6.133c2.818 1.65 7.677 4.603 10.797 6.561s10.364 6.009 16.098 9.001c11.202 5.847 15.313 9.939 16.925 16.847 1.351 5.789 3.884 17.051 5.531 24.599 0.841 3.851 2.491 11.277 3.667 16.502 6.251 27.773 6.649 30.366 5.051 32.889-0.717 1.132-1.673 0.92-5.235-1.161-2.397-1.4-9.309-5.322-15.36-8.716s-13.252-7.521-16.002-9.172c-15.421-9.257-18.446-11.012-23.003-13.35-2.75-1.411-7.476-4.114-10.501-6.008-14.13-8.843-20.358-10.772-27.433-8.496-6.904 2.221-25.284 7.013-26.902 7.013-0.955 0-1.99-0.788-2.3-1.75-0.542-1.684-2.26-6.508-6.497-18.252-1.092-3.025-2.903-7.751-4.026-10.501s-2.42-6.351-2.884-8.001c-0.463-1.65-2.257-6.826-3.986-11.502s-3.522-9.626-3.983-11.001c-0.462-1.375-2.251-6.326-3.976-11.002-2.937-7.961-8.070-26.27-7.99-28.502 0.079-2.2 4.858-6.708 8.552-8.066 2.265-0.833 5.599-1.22 7.914-0.918 2.379 0.311 17.465 7.25 37.222 17.122zM187.508 238.282c2.219 0.778 8.76 2.844 14.535 4.592s12.977 3.996 16.002 4.995c3.025 0.999 10.226 3.234 16.002 4.967 45.060 13.514 45.805 13.791 50.58 18.775 3.956 4.128 11.224 19.247 13.36 27.789 0.416 1.663 1.292 4.026 1.948 5.251s1.023 2.227 0.816 2.227c-0.426 0-14.639 3.738-19.198 5.049-5.391 1.55-14.89 4.070-20.503 5.438-3.025 0.738-8.876 2.292-13.002 3.455s-9.076 2.54-11.002 3.060c-1.925 0.52-8.578 2.339-14.784 4.041s-11.959 2.952-12.785 2.777c-1.845-0.39-38.439-78.863-38.439-82.43 0-5.534 5.271-11.254 10.468-11.36 1.082-0.023 3.782 0.596 6.001 1.374zM690.996 296.513c56.445 28.404 103.461 52.369 104.48 53.255 3.869 3.364 5.92 10.624 3.883 13.741-0.404 0.618-5.911 1.888-12.236 2.821-15.027 2.217-61.834 9.058-79.011 11.549-7.426 1.077-18.002 2.65-23.503 3.496s-22.378 3.329-37.505 5.519c-15.127 2.189-39.88 5.792-55.007 8.005s-36.73 5.358-48.007 6.988c-26.028 3.762-81.398 11.879-112.515 16.495-13.202 1.958-33.23 4.89-44.506 6.516-68.943 9.94-90.224 13.135-96.013 14.414-14.851 3.28-24.855 3.919-35.505 2.268-5.501-0.853-48.482-7.001-95.513-13.663s-87.462-12.82-89.847-13.684c-7.174-2.599-10.077-9.747-6.649-16.375 2.114-4.088 7.381-6.525 23.986-11.099 2.2-0.606 5.126-1.472 6.501-1.923s4.068-1.134 5.983-1.515c1.916-0.381 6.191-1.541 9.501-2.577s7.819-2.38 10.019-2.986c2.2-0.606 5.126-1.448 6.501-1.87s4.526-1.335 7.001-2.028c2.475-0.693 6.499-1.894 8.941-2.669s8.743-2.555 14.002-3.956c14.217-3.788 14.7-3.924 26.064-7.349 5.776-1.741 12.077-3.603 14.002-4.139s4.851-1.373 6.501-1.862c4.79-1.417 9.563-2.753 16.002-4.48 3.3-0.885 7.351-2.014 9.001-2.509s4.688-1.375 6.751-1.956c2.063-0.581 5.213-1.47 7.001-1.974s7.976-2.342 13.752-4.083c5.776-1.741 12.077-3.603 14.002-4.139s4.851-1.369 6.501-1.852c1.65-0.483 5.714-1.554 9.030-2.381s8.042-2.141 10.501-2.922c2.459-0.781 6.497-1.986 8.972-2.68s5.626-1.606 7.001-2.028c1.375-0.423 4.526-1.335 7.001-2.028s6.499-1.894 8.941-2.669c2.442-0.775 8.743-2.555 14.002-3.956 14.217-3.788 14.7-3.924 26.064-7.349 5.776-1.741 12.077-3.603 14.002-4.139 3.469-0.965 6.977-1.975 13.252-3.814 3.21-0.941 18.963-5.347 25.754-7.204 5.496-1.503 8.754-2.455 20.003-5.845 15.845-4.775 21.247-6.307 29.533-8.372 3.316-0.827 8.042-2.141 10.501-2.922s6.497-1.986 8.972-2.68c2.475-0.693 5.626-1.606 7.001-2.028s4.526-1.335 7.001-2.028c2.475-0.693 6.499-1.894 8.941-2.669s8.518-2.489 13.502-3.809c4.984-1.32 13.787-3.809 19.563-5.531s12.077-3.568 14.002-4.104c3.608-1.004 7.908-2.227 14.002-3.983 8.105-2.335 9.642-2.68 12.388-2.777 1.955-0.069 36.022 16.572 105.514 51.542zM823.984 394.639c1.112 2.783 3.148 12.313 7.103 33.255 1.195 6.326 3.226 16.902 4.514 23.503s3.326 17.177 4.529 23.503c1.203 6.326 3.241 16.902 4.529 23.503s3.317 17.177 4.51 23.503c1.193 6.326 3.201 16.677 4.462 23.003s3.272 16.677 4.466 23.003c3.541 18.746 6.035 31.765 8.526 44.506 1.291 6.601 3.295 16.952 4.453 23.003 1.914 9.992 3.298 17.086 9.077 46.506 4.319 21.988 4.522 24.394 2.368 28.082-1.077 1.844-3.432 4.213-5.235 5.266-3.695 2.158 10.648 2.896-124.169-6.387-31.629-2.178-80.461-5.538-108.515-7.467s-73.735-5.070-101.514-6.981c-27.779-1.91-73.685-5.060-102.014-7-104.236-7.136-93.93-6.17-98.886-9.267-5.57-3.48-8.715-9.383-10.564-19.829-0.771-4.357-1.829-9.047-2.35-10.422s-1.272-5.143-1.668-8.372c-0.397-3.23-1.301-7.514-2.009-9.521s-1.626-6.107-2.039-9.11c-0.413-3.003-1.313-7.054-2-9.001s-1.587-5.998-2-9.001c-0.413-3.003-1.313-7.054-2-9.001s-1.587-5.998-2-9.001c-0.413-3.003-1.313-7.054-2-9.001s-1.587-5.998-2-9.001c-0.413-3.003-1.313-7.054-2-9.001s-1.587-5.998-2-9.001c-0.413-3.003-1.313-7.054-2-9.001s-1.587-5.998-2-9.001c-0.413-3.003-1.313-7.054-2-9.001s-1.587-5.998-2-9.001c-0.413-3.003-1.313-7.054-2-9.001s-1.587-6.007-1.999-9.021c-0.412-3.014-1.18-6.606-1.707-7.981s-1.596-6.101-2.378-10.501c-1.324-7.454-1.297-8.172 0.396-10.501 3.572-4.917 7.885-6.031 38.992-10.072 16.337-2.122 41.856-5.464 56.708-7.425 26.544-3.506 57.862-7.621 117.766-15.472 16.64-2.181 42.406-5.57 57.258-7.532 25.883-3.418 52.686-6.939 118.016-15.504 42.782-5.609 81.215-10.691 109.515-14.482 31.87-4.27 32.458-4.283 33.861-0.772z" />
<glyph unicode="&#xe906;" glyph-name="x11" d="M95.492 339.172h244.617v-354.968h-244.617v354.968zM391.492 205.172h244.617v-217.789h-244.617v217.789zM683.492 870.048h244.617v-883.876h-244.617v883.876z" />
<glyph unicode="&#xe907;" glyph-name="baby_zombie" d="M357.625 933.25l-14-483.375 130.125-14-5.25-12.125c-141.25 9.173-231.492 14.842-271.25 17.25-21.675 1.313-32.936 1.94-38.875 2.25-2.97 0.155-4.531 0.208-5.625 0.25s-4.875 0-4.875 0l-32-2.5-0.625-157.375 344.25-24.875 2.875-284.375h228.5l12.25 443.875h168.125l14 511.375z" />
<glyph unicode="&#xe908;" glyph-name="armor_stand" d="M455.514 567.482h104.385v161.959l2.821 105.862-107.206-0.905zM264.723 486.552h476.677l-5.309 86.908c-142.18-0.098-314.246-0.196-471.368-0.294zM350.114-41.974h105.841v329.148l2.861 215.141-108.702-1.839zM559.398-41.993h105.88v324.041l2.861 211.803-108.742-1.81zM861.295-4.873l82.656 23.311-81.12 329.569-50.789 216.047-84.437-25.782zM63.46 11.515l84.107-17.365 79.735 329.907 54.391 215.168-86.825 15.991zM259.066-59.334h476.677l-5.309 86.908c-142.18-0.096-314.246-0.198-471.368-0.294z" />
<glyph unicode="&#xe909;" glyph-name="armor_stand_small" d="M479.778 452.094h82.515v189.025l2.23 123.553-84.745-1.056zM327.961 371.667h378.741l-4.218 94.8c-112.968-0.107-249.682-0.214-374.523-0.321zM381.959 57.137h97.532v206.337l2.636 134.868-100.168-1.153zM562.27 57.213h93.76v203.030l2.534 132.707-96.294-1.134zM836.627 10.238l86.879 19.613-85.264 277.283-53.383 181.771-88.751-21.692zM97.998 23.838l93.728-14.563 88.856 276.676 60.613 180.451-96.757 13.411zM323.191 1.42h379.279l-4.224 71.322c-113.129-0.077-250.037-0.16-375.056-0.243z" />
<glyph unicode="&#xe90a;" glyph-name="ground" d="M501.5 550.875c-33.116-2.315-53.035-4.943-95.25-29.25-15.568-8.964-30.113-23.073-47.25-41.625s-35.618-41.233-52.75-65.625c-34.264-48.785-65.701-100.914-64-150.875 0.844-24.773 12.521-46.84 29-62.875s37.425-27.263 60.5-35.875c50.816-14.145 52.303-18.359 147.125-24.25l0.625-0.128c25.804-0.64 42.145-1.3 80.25-2.125 78.857 1.225 134.386 16.463 172.875 39s60.511 49.945 62.75 80.625c2.101 28.792-10.411 55.18-26.25 85.878s-36.78 63.148-58 91.25l-0.75 1-0.75 0.875c-36.096 39.749-68.488 93.859-135.125 110.875-19.978 5.102-38.802 5.516-73 3.125zM74.5 84.875c0-33.292 0-66.583 0-99.875h860.75v99.875z" />
<glyph unicode="&#xe90b;" glyph-name="hud" d="M8.75 177.75v-188.125h1012v188.125zM43 143.5h943.625v-119.625h-943.625zM10.75 323v-74.375h473.625v74.375zM520.5 322v-73.125h499.25v73.125zM9 409.625c0-22.333 0-44.667 0-67h473.25v67zM7.5 232.875v-42.25h1012.625v42.25z" />
<glyph unicode="&#xe90c;" glyph-name="inventory_full" d="M756.75 725.625v-108.5h105.75v108.5zM781.125 701.25h57v-59.75h-57zM89.125 164.125v-32h842.875v32zM182 884.875v-432.625h32v432.625zM517.125 759.625v-173.625h179.125v173.625zM541.5 735.25h130.375v-124.875h-130.375zM380.25 922.75c0-165.042 0-330.083 0-495.125h587.625v495.125zM437.875 865.25h472.375v-380h-472.375zM47.625 920.75v-493.125h390.25v493.125zM105.125 863.25h275.125v-378h-275.125zM47.625 485.25v-493.25h920.25v493.25zM105.125 427.625h805.125v-378h-805.125z" />
<glyph unicode="&#xe90d;" glyph-name="inventory_nine" d="M376.25 308.25h293.5v284.125c-349.612 19.848-293.5 0.814-293.5-284.125zM365.125 907.625l7.5-900.125 306.875 2.625-7.375 886.375-16.5 0.625zM399.75 872l238.125-8.75 6.875-819-238-2zM90 598.375l-0.75-16.5-12.875-293h891.875v309.5zM122.875 563.875h811v-240.625h-821.625zM67.625 910.375v-915.25h910.125v915.25zM123.625 854.375h798.125v-803.25h-798.125z" />
<glyph unicode="&#xe90e;" glyph-name="inventory_single" d="M86.75 887.25v-873h875.75v873zM164.5 809.5h720.375v-717.5h-720.375z" />
<glyph unicode="&#xe90f;" glyph-name="player_head" d="M146 216.25l-91.625-282.875 912.5-2.003-71.25 284.875zM302.625 646l-15.875-414.625h28.5l469.625 0.625-11.875 414zM355.25 591.25h364.625l8.75-304.5-385-0.627z" />
<glyph unicode="&#xe910;" glyph-name="zombie" d="M428.375 922.875l-8.5-404.75 81.625-4.125-5.625-14.25c-289.841 20.179-359.5 23.25-359.5 23.25l-37.875-0.875-0.75-169.25 409.375-32.375-3.125-375h212l34.5 552.25 109.125 3.375 12.125 417.375z" />
<glyph unicode="&#xe911;" glyph-name="blockbench_inverted" d="M578.903 49.436c-4.603 1.693-10.558 7.311-10.657 10.052-0.1 2.781 6.296 25.596 9.956 35.516 2.15 5.826 4.379 11.995 4.955 13.709s2.809 7.883 4.964 13.709c2.155 5.826 4.39 12.276 4.967 14.332s2.194 6.543 3.593 9.97c1.399 3.427 3.657 9.316 5.017 13.086 5.281 14.635 7.421 20.647 8.096 22.745 0.386 1.2 1.676 2.181 2.866 2.181 2.016 0 24.919-5.971 33.522-8.739 8.816-2.837 16.577-0.433 34.184 10.586 3.77 2.36 9.659 5.728 13.086 7.486 5.679 2.913 9.448 5.1 28.664 16.635 3.427 2.057 12.4 7.201 19.94 11.43s16.153 9.117 19.14 10.861c4.44 2.593 5.631 2.857 6.524 1.447 1.991-3.144 1.495-6.374-6.294-40.983-1.466-6.512-3.522-15.765-4.569-20.564-2.053-9.406-5.209-23.44-6.893-30.653-2.009-8.608-7.132-13.707-21.091-20.993-7.144-3.729-16.171-8.776-20.059-11.217s-9.943-6.119-13.455-8.175c-3.511-2.056-9.182-5.495-12.6-7.642-12.653-7.946-89.068-45.28-93.996-45.923-2.885-0.377-7.039 0.105-9.862 1.143zM142.925 196.657c-3.909 2.121-7.182 7.706-7.182 12.255 0 4.445 45.6 102.231 47.9 102.717 1.029 0.217 8.198-1.34 15.932-3.461s16.024-4.387 18.423-5.035c2.399-0.649 8.568-2.364 13.709-3.813s12.432-3.386 16.202-4.305c6.995-1.705 18.831-4.845 25.549-6.777 5.681-1.634 23.392-6.292 23.923-6.292 0.257 0-0.201-1.249-1.017-2.775s-1.909-4.47-2.427-6.543c-2.661-10.644-11.718-29.484-16.648-34.629-5.951-6.211-6.879-6.555-63.029-23.395-7.197-2.159-16.17-4.944-19.94-6.189s-12.743-4.046-19.94-6.224c-7.197-2.178-15.348-4.753-18.113-5.722-6.271-2.198-9.012-2.16-13.34 0.189zM644.848 205.969c-2.056 0.571-5.702 1.604-8.101 2.295-7.594 2.188-12.952 3.712-17.448 4.963-2.399 0.668-10.251 2.969-17.448 5.114s-18.167 5.246-24.378 6.892c-6.21 1.645-13.782 3.781-16.825 4.746s-8.057 2.462-11.141 3.326c-3.085 0.864-7.010 2.001-8.724 2.528s-5.639 1.664-8.724 2.528c-3.085 0.864-8.116 2.366-11.18 3.339s-8.953 2.611-13.086 3.641c-10.325 2.573-17.057 4.482-36.801 10.433-14.018 4.225-18.077 5.411-24.926 7.283-8.462 2.314-28.091 7.805-32.092 8.977-7.819 2.292-12.191 3.55-16.513 4.753-2.399 0.668-10.251 2.989-17.448 5.158-14.16 4.268-14.763 4.438-32.478 9.158-6.553 1.746-14.405 3.964-17.448 4.93s-8.057 2.462-11.141 3.326c-3.085 0.864-7.010 2.001-8.724 2.528s-5.639 1.664-8.724 2.528c-3.085 0.864-8.116 2.366-11.18 3.339s-8.953 2.611-13.086 3.641c-4.133 1.030-9.196 2.365-11.253 2.967s-5.702 1.64-8.101 2.308c-2.399 0.668-10.251 2.989-17.448 5.158s-14.909 4.459-17.136 5.088c-2.228 0.629-6.154 1.736-8.724 2.46s-6.356 1.821-8.412 2.437c-2.056 0.616-7.104 2.023-11.217 3.126-8.024 2.152-13.971 3.817-19.94 5.583-2.056 0.608-5.702 1.652-8.101 2.32s-10.251 2.989-17.448 5.158c-14.16 4.268-14.763 4.438-32.478 9.158-6.553 1.746-14.405 3.964-17.448 4.93s-8.057 2.462-11.141 3.326c-3.085 0.864-7.010 2.001-8.724 2.528s-5.359 1.575-8.101 2.33c-2.742 0.755-8.36 2.43-12.485 3.721s-9.453 2.736-11.84 3.211c-2.387 0.475-5.742 1.324-7.456 1.888s-5.359 1.642-8.101 2.397c-20.692 5.699-27.255 8.736-29.89 13.831-4.271 8.259-0.654 17.166 8.286 20.405 2.971 1.077 53.353 8.75 111.959 17.051s112.165 15.963 119.020 17.026c13.271 2.057 25.737 1.261 44.243-2.826 7.214-1.593 33.733-5.574 119.643-17.961 14.052-2.026 39.009-5.68 55.459-8.12 38.775-5.751 107.772-15.866 140.206-20.554 14.052-2.031 40.971-5.95 59.821-8.708s49.695-7.248 68.545-9.976c18.85-2.728 39.881-5.823 46.735-6.877s20.034-3.014 29.288-4.356c21.404-3.104 79.731-11.629 98.456-14.391 7.883-1.163 14.744-2.744 15.248-3.515 2.539-3.884-0.018-12.931-4.838-17.123-1.27-1.104-59.857-30.967-130.194-66.361-86.595-43.576-129.047-64.313-131.482-64.227-1.978 0.070-5.279 0.595-7.336 1.166zM907.19 392.269c-35.265 4.724-83.157 11.058-136.468 18.047-81.408 10.673-114.808 15.061-147.061 19.32-18.507 2.444-50.615 6.667-71.35 9.385-74.647 9.784-113.672 14.911-146.749 19.28-18.507 2.444-50.306 6.608-70.664 9.253-38.763 5.035-44.137 6.424-48.589 12.551-2.109 2.903-2.143 3.797-0.493 13.086 0.974 5.484 2.307 11.372 2.963 13.086s1.613 6.189 2.127 9.945c0.514 3.756 1.635 8.815 2.491 11.242s1.978 7.474 2.493 11.217c0.515 3.742 1.636 8.79 2.493 11.216s1.978 7.474 2.493 11.217c0.515 3.742 1.636 8.79 2.493 11.217s1.978 7.474 2.493 11.217c0.515 3.742 1.636 8.79 2.493 11.217s1.978 7.474 2.493 11.217c0.515 3.742 1.636 8.79 2.493 11.217s1.978 7.474 2.493 11.217c0.515 3.742 1.636 8.79 2.493 11.217s1.978 7.474 2.493 11.217c0.515 3.742 1.636 8.79 2.493 11.217s1.978 7.474 2.493 11.217c0.515 3.742 1.658 8.851 2.54 11.352s2.009 7.84 2.503 11.865c0.494 4.024 1.43 8.719 2.079 10.433s1.967 7.558 2.928 12.987c2.304 13.017 6.223 20.372 13.164 24.709 6.177 3.859-6.666 2.655 123.223 11.547 35.301 2.417 92.505 6.342 127.12 8.722s91.539 6.295 126.497 8.699c34.958 2.404 95.808 6.591 135.221 9.305 167.997 11.568 150.124 10.648 154.729 7.959 2.246-1.312 5.181-4.265 6.523-6.562 2.684-4.595 2.431-7.593-2.951-34.993-7.201-36.66-8.926-45.501-11.311-57.952-1.444-7.54-3.941-20.439-5.549-28.664-3.104-15.876-6.212-32.1-10.624-55.459-1.489-7.883-3.993-20.782-5.566-28.664s-4.075-20.782-5.561-28.664c-1.486-7.883-4.015-21.062-5.62-29.288s-4.145-21.405-5.644-29.288c-1.499-7.883-4.039-21.062-5.644-29.288s-4.136-21.405-5.625-29.288c-4.928-26.095-7.465-37.971-8.851-41.439-1.749-4.375-2.481-4.358-42.195 0.962z" />
<glyph unicode="&#xe912;" glyph-name="optifine_file" d="M144.495-13.004c-7.007 3.755-15.811 12.563-19.566 19.566-6.5 12.124-6.832 33.283-6.832 438.157 0 468.378-1.24 443.821 23.14 458.77 12.159 7.456 16.823 7.572 266.582 6.624l254.208-0.962 22.429-10.484c18.824-8.799 37.242-25.245 114.576-102.325 98.134-97.816 107.914-110.624 115.386-151.119 2.51-13.605 3.505-127.524 2.84-325.406-0.959-286.179-1.425-305.089-7.763-314.765-3.709-5.663-12.124-13.572-18.694-17.578-11.623-7.086-21.718-7.286-372.756-7.297-342.318-0.016-361.466 0.335-373.549 6.818zM849.909 311.948l-0.959 268.228-237.255 3.74-24.433 24.434-2.169 239.124h-399.708v-803.748h665.479zM293.802 142.786v31.777h-67.292v261.688h67.292v67.292h130.844v-67.292h63.552v-261.688h-63.552v-63.552h-130.844zM424.642 305.403v130.844h-130.844v-261.688h130.844zM555.486 307.273v196.266h261.688v-67.292h-198.135v-63.552h130.844v-67.292h-130.844v-194.396h-63.552zM847.077 650.187c0 7.18-184.425 189.807-191.677 189.807-5.956 0-6.459-7.596-6.459-97.196v-97.196h99.066c75.801 0 99.065 1.076 99.065 4.589z" />
<glyph unicode="&#xe913;" glyph-name="saved" d="M213.333 832c-47.36 0-85.333-38.4-85.333-85.333v-597.333c0-46.933 37.973-85.333 85.333-85.333h597.333c46.933 0 85.333 38.4 85.333 85.333v512l-170.667 170.667h-512zM213.333 746.667h426.667v-170.667h-426.667v170.667zM673 505.083l56.417-45.583-0.25-0.333-239.167-298.917c-0.013-0.021-0.166-0.333-0.167-0.333l-0.25-0.167-26.417-33.083-24.917 28.083c-3.157 2.438-4.729 4.005-6.583 5.833-3.934 3.878-8.256 8.565-13.5 14.333-10.488 11.537-24.064 27.023-37.583 42.667-26.001 30.087-49.883 58.521-51.833 60.833l-1.5 1.667c-0.007 0.009-0.583 0.75-0.583 0.75l54.833 47.417 0.583-0.667 77.333-87.25c3.961 5.054 6.69 8.637 11.333 14.5 22.584 28.52 52.464 65.776 82.417 102.833 59.774 73.951 119.323 146.763 119.583 147.083 0.004 0 0.25 0.333 0.25 0.333z" />
<glyph unicode="&#xe914;" glyph-name="player" d="M369.125 945.5v-279.25l-97.125 17.125-58-329.125 124-21.875 48.125 272.5v-298.25l-55.875-316.25 124.125-21.875 56.625 321h2.75l56.625-321 124 21.875-58 329v285.375l48-272.375 124.125 21.875-58.125 329.125-91.375-16.125v278.25h-289.875z" />
<glyph unicode="&#xe915;" glyph-name="mirror_x" d="M860.39 84.204l-292.395 730.812-63.238-12.415 4.6-688.96 0.23-32.999zM486.244 802.596l-63.238 12.415-292.395-730.812 350.803-3.563 0.23 32.999zM419.443 629.438l-3.22-482.456-189.028 1.953z" />
<glyph unicode="&#xe916;" glyph-name="mirror_y" d="M858.931 812.516l-730.408-292.231 12.412-63.204 721.559 4.826-3.563 350.611zM140.935 438.578l-12.412-63.204 730.408-292.231 3.563 350.611-721.559 4.826zM313.998 371.809l482.188-3.216-1.953-188.924-480.235 192.14z" />
<glyph unicode="&#xe917;" glyph-name="mirror_z" d="M96.503 190.743l789.204 201.005 11.989 43.475-673.881-3.32zM904.588 447.952l35.107 43.475-571.447 201.005-133.945-241.161 30.634-0.159zM768.266 493.876l-447.93 2.212 72.206 129.948z" />
</font>
</defs>
</svg>
