<?xml version="1.0" standalone="no"?>
<!DOCTYPE svg PUBLIC "-//W3C//DTD SVG 1.1//EN" "http://www.w3.org/Graphics/SVG/1.1/DTD/svg11.dtd" >
<svg xmlns="http://www.w3.org/2000/svg">
<metadata>Generated by IcoMoon</metadata>
<defs>
<font id="icomoon" horiz-adv-x="1024">
<font-face units-per-em="1024" ascent="960" descent="-64" />
<missing-glyph horiz-adv-x="1024" />
<glyph unicode="&#x20;" horiz-adv-x="512" d="" />
<glyph unicode="&#xe900;" glyph-name="blockbench_file" d="M153.951-3.756c-6.924 3.711-15.624 12.415-19.336 19.336-6.424 11.98-6.752 32.89-6.752 432.985 0 462.85-1.225 438.583 22.867 453.355 12.015 7.368 16.624 7.482 263.436 6.546l251.208-0.951 22.165-10.36c18.602-8.695 36.802-24.947 113.223-101.118 96.976-96.661 106.64-109.318 114.023-149.335 2.48-13.445 3.464-126.019 2.807-321.565-0.948-282.802-1.408-301.488-7.672-311.049-3.666-5.595-11.98-13.411-18.473-17.37-11.486-7.003-21.461-7.2-368.357-7.211-338.278-0.018-357.199 0.332-369.14 6.737zM851.038 317.359l-0.948 265.062-234.454 3.695-24.145 24.146-2.143 236.3h-394.99v-552.748l72.961 10.216c40.13 5.618 75.455 9.527 78.503 8.685s96.143-14.098 206.879-29.454c232.847-32.294 222.415-30.531 220.937-37.369-1.148-5.311-165.014-86.457-174.591-86.457-4.366 0-331.198 88.883-387.14 105.285l-17.549 5.143v-217.563h657.624zM546.617 65.316c-1.188 3.097 4.069 22.244 11.687 42.548l13.847 36.916 17.38-2.306c16.039-2.128 19.916-0.868 50.307 16.341 18.112 10.256 33.502 17.033 34.2 15.060s-1.512-16.081-4.91-31.353c-5.94-26.691-6.847-28.191-23.434-38.727-22.35-14.194-84.362-44.104-91.44-44.104-3.013 0-6.449 2.534-7.637 5.632zM262.479 156.831c-1.518 3.952 25.756 69.258 28.822 69.020 6.3-0.488 70.529-18.396 72.286-20.153 1.307-1.306-0.908-8.484-4.922-15.948-6.883-12.798-9.62-14.259-47.938-25.589-46.687-13.805-45.815-13.671-48.248-7.326zM580.408 300.033c-107.688 13.925-199.218 25.387-203.401 25.477s-10.36 2.238-13.723 4.778c-5.617 4.24-4.772 10.35 10.363 74.808 9.063 38.604 17.784 75.179 19.378 81.275 2.51 9.606 5.098 11.443 19.409 13.782 34.411 5.626 425.888 29.017 429.259 25.649 2.094-2.094-6.209-51.557-21.418-127.634l-24.836-124.216-9.617 0.382c-5.289 0.211-97.723 11.776-205.41 25.7zM848.241 651.606c0 7.094-182.249 187.566-189.414 187.566-5.885 0-6.383-7.507-6.383-96.049v-96.049h97.897c74.907 0 97.897 1.064 97.897 4.535z" />
<glyph unicode="&#xe901;" glyph-name="vertexsnap" d="M352.758 822.511c-94.322-16.593-173.095-58.22-195.625-103.381-22.252-44.602 23.088-66.301 64.49-30.86 11.351 9.716 22.769 17.667 25.375 17.667s8.125 2.937 12.271 6.527c94.117 81.469 373.803 29.633 480.612-89.075 22.394-24.888 22.394-24.888-25.24-26.242-95.297-2.705-95.063-27.575 0.883-93.179 53.434-36.537 74.942-54.574 98.213-82.37 27.119-32.387 31.373-35.587 47.317-35.587 29.258 0 31.648 4.861 37.579 76.399 5.087 61.343 15.736 121.747 32.274 183.061 15.974 59.222-34.284 68.492-68.716 12.676-24.88-40.331-22.48-40.122-48.62-4.226-84.653 116.247-303.408 196.281-460.812 168.589zM44.401 620.355c-13.957-13.957-13.957-13.957-13.957-138.842 0-166.588-13.787-152.802 152.801-152.802s152.802-13.787 152.802 152.802c0 166.588 13.787 152.801-152.802 152.801-124.886 0-124.886 0-138.842-13.957zM703.355 300.427c-13.957-13.957-13.957-13.957-13.957-138.842 0-166.588-13.787-152.801 152.802-152.801s152.801-13.787 152.801 152.801c0 166.588 13.787 152.802-152.801 152.802-124.886 0-124.886 0-138.842-13.957z" />
<glyph unicode="&#xe902;" glyph-name="create_bitmap" d="M233.975 795.371c-41.079 0-75.024-33.945-75.024-75.024v-553.202c0-41.079 33.945-75.024 75.024-75.024h556.032c41.079 0 75.024 33.945 75.024 75.024v553.202c0 41.079-33.945 75.024-75.024 75.024h-556.032zM728.208 550.872c31.861-0.066 58.699-5.78 77.775-11.178v-372.557c0-9.353-6.613-15.966-15.966-15.966h-556.032c-9.353 0-15.966 6.613-15.966 15.966v352.515c57.355-21.823 45.226-70.314 143.573-83.005 100.291-12.944 130.54 15.61 248.313 83.71 40.403 23.361 82.046 30.584 118.3 30.508zM616.108 419.361v-84.155h-84.155v-66.783h84.155v-84.155h66.872v84.155h84.155v66.783h-84.155v84.155h-66.872z" />
<glyph unicode="&#xe903;" glyph-name="objects" d="M405.375 850.625c-127.304-0.010-230.5-101.945-230.5-227.688 0-0.022 0-0.043 0-0.065v0.003c0.095-14.736 1.592-29.067 4.366-42.945l-0.241 1.445 128.875 50.875 175.75-91.75 113.125 208.625c-41.829 61.414-111.864 101.324-191.348 101.5h-0.027zM738.75 843.75l-65.375-127.625-0.125-0.5-155.625-286.75-214.5 112-167.75-66.25-93-38 2.875-322.375 257.375-121.625 243.25 141.375v170.875l164-108.625 288.5 192.25-259.625 455.25z" />
<glyph unicode="&#xe904;" glyph-name="bow" d="M35.553-29.24c-7.642 3.083-6.021 12.569 4.555 26.681 39.762 53.054 48.92 109.812 41.934 259.931-9.092 195.392 17.712 299.308 108.269 419.755l16.091 21.402-22.777 18.239c-12.528 10.032-28.615 23.732-35.748 30.446-15.222 14.326-15.034 14.429-19.587-10.825-8.701-48.272-36.488-35.113-45.118 21.367-2.847 18.629-11.631 49.997-19.519 69.707-20.487 51.185-12.617 58.915 43.919 43.134 16.070-4.486 42.751-10.936 59.289-14.334 59.696-12.263 65.502-22.743 23.093-41.68l-23.852-10.651 23.433-20.043c12.889-11.025 30.236-25.094 38.548-31.267l15.115-11.223 24.527 22.196c104.812 94.85 216.335 133.074 380.267 130.336 239.449-3.999 246.166-3.427 287.157 24.417 36.867 25.044 42.653 21.65 55.505-32.567 11.517-48.58-5.494-87.043-41.696-94.285-7.835-1.567-61.992-53.175-185.090-176.384l-174.014-174.167 40.202-38.579 104.503 3.775 55.215-39.504c64.41-46.082 65.569-43.35-20.196-47.582-79.336-3.915-70.911 6.254-68.577-82.78 1.813-69.153 1.423-75.324-4.461-70.83-5.425 4.142-78.61 65.619-90.43 75.964-2.086 1.827-6.092 29.94-8.901 62.475l-5.107 59.155-42.098 38.3-175.85-175.518c-142.782-142.514-177.562-179.314-184.956-195.704-19.076-42.291-109.432-77.193-153.649-59.351zM509.672 435.682c-21.641 18.212-105.2 90.781-158.726 137.85-62.738 55.171-56.863 52.53-69.371 31.187-46.704-79.693-64.276-167.878-70.532-353.948-2.298-68.36-5.276-128.804-6.615-134.316-1.602-6.589 52.343 44.655 157.417 149.541l159.853 159.564zM867.356 772.303c-0.464 0.362-22.496-2.702-48.958-6.81s-101.015-10.175-165.673-13.48c-182.26-9.32-222.996-18.596-296.424-67.508-13.787-9.184-24.613-17.926-24.056-19.426 1.567-4.226 94.394-87.537 97.536-87.537 1.531 0 19.23-15.007 39.331-33.348s49.128-43.642 64.504-56.224l27.956-22.876 153.315 153.276c84.323 84.303 152.934 153.572 152.47 153.934z" />
<glyph unicode="&#xe905;" glyph-name="bb_interface" d="M35.75 808.326c-16.933 0-31.125-14.317-31.125-31.25v-657.125c0-16.933 14.192-31.125 31.125-31.125h954.5c16.933 0 31.125 14.192 31.125 31.125v657.125c0 16.933-14.192 31.25-31.125 31.25zM42.5 770.326h941v-27.125h-211.375v-0.25l-506.25-3.75h-223.375zM772.125 710.355v-583.654h-506.25v579.779zM518.5 397.951l-217.625-75.625 26.125-22.625 164.375-141.875 252 169.75z" />
<glyph unicode="&#xe906;" glyph-name="blockbench" d="M478.542-15.125c-128.408 9.561-247.028 71.663-327.643 171.538-79.216 98.141-114.979 224.069-99.261 349.5 14.899 118.939 75.553 227.779 168.959 303.172 129.952 104.887 306.27 131.82 461.889 70.548 99.58-39.207 183.494-112.798 235.483-206.512 13.925-25.099 27.701-56.989 36.020-83.365 3.723-11.798 4.762-14.091 7.884-17.357 3.388-3.546 3.489-3.794 1.687-4.368-1.052-0.332-1.911-1.055-1.911-1.59s1.416-7.349 3.149-15.119c7.179-32.227 10.348-58.798 11.076-92.982 0.557-26.17-0.382-45.495-3.364-68.882-15.874-124.647-81.233-237.104-181.711-312.687-71.441-53.741-156.574-85.383-247.441-91.986-14.756-1.068-49.764-1.010-64.808 0.101zM566.205 165.695c16.554 8.272 32.142 16.322 34.627 17.884s6.61 4.063 9.164 5.557c2.554 1.494 6.957 4.171 9.783 5.94s9.392 5.445 14.582 8.155c10.152 5.301 13.879 9.009 15.336 15.269 1.225 5.244 3.518 15.452 5.012 22.295 0.763 3.491 2.257 10.221 3.325 14.954 5.663 25.169 6.025 27.516 4.577 29.805-0.651 1.024-1.517 0.836-4.743-1.053-2.17-1.268-8.434-4.824-13.92-7.9s-12.010-6.81-14.502-8.314c-13.975-8.387-16.718-9.98-20.846-12.088-2.492-1.279-6.774-3.73-9.517-5.444-12.804-8.015-18.45-9.764-24.859-7.698-6.256 2.011-22.914 6.346-24.382 6.346-0.865 0-1.804-0.716-2.084-1.588-0.488-1.528-2.050-5.896-5.882-16.542-0.99-2.743-2.633-7.025-3.648-9.517s-2.192-5.757-2.614-7.251c-0.421-1.494-2.047-6.184-3.614-10.422s-3.192-8.724-3.611-9.969c-0.42-1.242-2.041-5.732-3.604-9.97-2.661-7.216-7.314-23.804-7.24-25.832 0.073-1.996 4.402-6.078 7.748-7.31 2.054-0.755 5.070-1.106 7.17-0.834 2.157 0.281 15.827 6.572 33.722 15.51zM217.928 257.944c2.009 0.706 7.938 2.576 13.173 4.16s11.759 3.62 14.502 4.527c2.743 0.894 9.266 2.924 14.502 4.49 40.836 12.248 41.509 12.494 45.84 17.017 3.584 3.736 10.174 17.441 12.106 25.185 0.372 1.507 1.172 3.648 1.764 4.759s0.927 2.017 0.738 2.017c-0.384 0-13.265 3.388-17.398 4.575-4.887 1.406-13.492 3.678-18.583 4.928-2.743 0.662-8.042 2.076-11.784 3.131s-8.224 2.3-9.97 2.772c-1.745 0.472-7.774 2.112-13.398 3.663s-10.837 2.676-11.585 2.518c-1.671-0.354-34.824-71.471-34.824-74.702 0-5.012 4.779-10.198 9.478-10.29 0.98-0.023 3.428 0.542 5.437 1.242zM674.214 310.715c51.153 25.74 93.751 47.461 94.679 48.263 3.504 3.040 5.36 9.628 3.517 12.451-0.368 0.558-5.359 1.706-11.090 2.557-13.617 2.007-56.038 8.202-71.605 10.464-6.73 0.975-16.316 2.402-21.301 3.166s-20.278 3.017-33.989 5.003c-13.711 1.985-36.142 5.244-49.855 7.255s-33.286 4.854-43.507 6.334c-23.586 3.408-73.766 10.754-101.967 14.947-11.966 1.764-30.116 4.432-40.343 5.904-62.481 9.010-81.764 11.905-87.013 13.064-13.459 2.974-22.527 3.553-32.175 2.054-4.985-0.775-43.939-6.346-86.569-12.378s-79.261-11.62-81.423-12.4c-6.502-2.344-9.13-8.835-6.025-14.839 1.916-3.704 6.691-5.913 21.736-10.058 1.996-0.546 4.646-1.334 5.882-1.743s3.678-1.026 5.418-1.371c1.736-0.345 5.609-1.397 8.608-2.337s7.087-2.158 9.072-2.704c1.996-0.546 4.646-1.31 5.882-1.696s4.1-1.209 6.346-1.836c2.241-0.627 5.882-1.706 8.101-2.417s7.912-2.315 12.688-3.584c12.885-3.434 13.32-3.558 23.622-6.659 5.236-1.579 10.943-3.267 12.688-3.749s4.395-1.242 5.882-1.688c4.34-1.285 8.666-2.495 14.502-4.060 2.982-0.801 6.661-1.822 8.155-2.275s4.25-1.242 6.114-1.764c1.871-0.527 4.722-1.332 6.346-1.788s7.226-2.112 12.462-3.699c5.236-1.579 10.943-3.267 12.688-3.749s4.395-1.242 5.882-1.678c1.494-0.43 5.18-1.41 8.184-2.159s7.286-1.938 9.517-2.646c2.228-0.709 5.882-1.8 8.132-2.428s5.098-1.456 6.346-1.836c1.242-0.372 4.1-1.209 6.346-1.836s5.882-1.706 8.101-2.417c2.214-0.703 7.912-2.315 12.688-3.584 12.885-3.434 13.32-3.558 23.622-6.659 5.236-1.579 10.943-3.267 12.688-3.749 3.145-0.875 6.323-1.789 12.010-3.446 2.91-0.851 17.187-4.838 23.34-6.52 4.98-1.358 7.932-2.227 18.12-5.299 14.35-4.316 19.255-5.708 26.762-7.586 3.004-0.749 7.286-1.938 9.517-2.646s5.882-1.8 8.132-2.428c2.241-0.627 5.098-1.456 6.346-1.836s4.1-1.209 6.346-1.836c2.241-0.627 5.882-1.706 8.101-2.417s7.72-2.255 12.236-3.446c4.516-1.194 12.494-3.446 17.727-5.012s10.943-3.232 12.688-3.72c3.272-0.908 7.158-2.017 12.688-3.611 7.343-2.112 8.736-2.428 11.218-2.518 1.764-0.063 32.644 15.018 95.62 46.712zM794.734 399.643c1.010 2.518 2.854 11.16 6.437 30.126 1.081 5.732 2.924 15.318 4.084 21.301s3.014 15.568 4.103 21.301c1.089 5.732 2.935 15.318 4.103 21.301s3.005 15.568 4.084 21.301c1.079 5.732 2.901 15.104 4.042 20.846s2.966 15.104 4.046 20.846c3.211 16.988 5.471 28.789 7.728 40.343 1.171 5.983 2.982 15.362 4.026 20.846 1.734 9.056 2.982 15.484 8.225 42.144 3.91 19.918 4.096 22.108 2.146 25.448-0.975 1.67-3.108 3.817-4.743 4.774-3.347 1.954 9.652 2.626-112.529-5.787-28.665-1.974-72.919-5.012-98.333-6.765s-66.823-4.596-91.998-6.327c-25.175-1.73-66.779-4.586-92.45-6.346-94.462-6.462-85.122-5.592-89.616-8.397-5.048-3.156-7.899-8.492-9.574-17.969-0.699-3.949-1.648-8.201-2.128-9.444s-1.152-4.663-1.512-7.586c-0.361-2.924-1.181-6.81-1.822-8.627s-1.474-5.534-1.847-8.258c-0.372-2.721-1.184-6.394-1.814-8.155s-1.437-5.434-1.814-8.155c-0.372-2.721-1.184-6.394-1.814-8.155s-1.437-5.434-1.814-8.155c-0.372-2.721-1.184-6.394-1.814-8.155s-1.437-5.434-1.814-8.155c-0.372-2.721-1.184-6.394-1.814-8.155s-1.437-5.434-1.814-8.155c-0.372-2.721-1.184-6.394-1.814-8.155s-1.437-5.434-1.814-8.155c-0.372-2.721-1.184-6.394-1.814-8.155s-1.437-5.434-1.814-8.155c-0.372-2.721-1.184-6.394-1.814-8.155s-1.437-5.443-1.813-8.175c-0.372-2.732-1.068-5.988-1.545-7.231s-1.446-5.531-2.156-9.517c-1.198-6.752-1.177-7.404 0.36-9.517 3.236-4.455 7.147-5.467 35.338-9.13 14.807-1.924 37.932-4.954 51.392-6.729 24.054-3.176 52.438-6.907 106.726-14.020 15.080-1.977 38.42-5.048 51.888-6.824 23.456-3.098 47.748-6.288 106.952-14.052 38.768-5.081 73.601-9.689 99.249-13.126 28.882-3.868 29.416-3.881 30.687-0.7z" />
<glyph unicode="&#xe907;" glyph-name="x11" d="M110.538 343.104h235.781v-342.146h-235.781v342.146zM395.846 213.944h235.781v-209.921h-235.781v209.921zM677.298 854.802h235.781v-851.948h-235.781v851.948z" />
<glyph unicode="&#xe908;" glyph-name="baby_zombie" d="M357.625 933.25l-14-483.375 130.125-14-5.25-12.125c-141.25 9.173-231.492 14.842-271.25 17.25-21.675 1.313-32.936 1.94-38.875 2.25-2.97 0.155-4.531 0.208-5.625 0.25s-4.875 0-4.875 0l-32-2.5-0.625-157.375 344.25-24.875 2.875-284.375h228.5l12.25 443.875h168.125l14 511.375z" />
<glyph unicode="&#xe909;" glyph-name="armor_stand" d="M455.514 567.482h104.385v161.959l2.821 105.862-107.206-0.905zM264.723 486.552h476.677l-5.309 86.908c-142.18-0.098-314.246-0.196-471.368-0.294zM350.114-41.974h105.841v329.148l2.861 215.141-108.702-1.839zM559.398-41.993h105.88v324.041l2.861 211.803-108.742-1.81zM861.295-4.873l82.656 23.311-81.12 329.569-50.789 216.047-84.437-25.782zM63.46 11.515l84.107-17.365 79.735 329.907 54.391 215.168-86.825 15.991zM259.066-59.334h476.677l-5.309 86.908c-142.18-0.096-314.246-0.198-471.368-0.294z" />
<glyph unicode="&#xe90a;" glyph-name="armor_stand_small" d="M479.778 452.094h82.515v189.025l2.23 123.553-84.745-1.056zM327.961 371.667h378.741l-4.218 94.8c-112.968-0.107-249.682-0.214-374.523-0.321zM381.959 57.137h97.532v206.337l2.636 134.868-100.168-1.153zM562.27 57.213h93.76v203.030l2.534 132.707-96.294-1.134zM836.627 10.238l86.879 19.613-85.264 277.283-53.383 181.771-88.751-21.692zM97.998 23.838l93.728-14.563 88.856 276.676 60.613 180.451-96.757 13.411zM323.191 1.42h379.279l-4.224 71.322c-113.129-0.077-250.037-0.16-375.056-0.243z" />
<glyph unicode="&#xe90b;" glyph-name="ground" d="M501.5 550.875c-33.116-2.315-53.035-4.943-95.25-29.25-15.568-8.964-30.113-23.073-47.25-41.625s-35.618-41.233-52.75-65.625c-34.264-48.785-65.701-100.914-64-150.875 0.844-24.773 12.521-46.84 29-62.875s37.425-27.263 60.5-35.875c50.816-14.145 52.303-18.359 147.125-24.25l0.625-0.128c25.804-0.64 42.145-1.3 80.25-2.125 78.857 1.225 134.386 16.463 172.875 39s60.511 49.945 62.75 80.625c2.101 28.792-10.411 55.18-26.25 85.878s-36.78 63.148-58 91.25l-0.75 1-0.75 0.875c-36.096 39.749-68.488 93.859-135.125 110.875-19.978 5.102-38.802 5.516-73 3.125zM74.5 84.875c0-33.292 0-66.583 0-99.875h860.75v99.875z" />
<glyph unicode="&#xe90c;" glyph-name="hud" d="M8.75 177.75v-188.125h1012v188.125zM43 143.5h943.625v-119.625h-943.625zM10.75 323v-74.375h473.625v74.375zM520.5 322v-73.125h499.25v73.125zM9 409.625c0-22.333 0-44.667 0-67h473.25v67zM7.5 232.875v-42.25h1012.625v42.25z" />
<glyph unicode="&#xe90d;" glyph-name="inventory_full" d="M756.75 725.625v-108.5h105.75v108.5zM781.125 701.25h57v-59.75h-57zM89.125 164.125v-32h842.875v32zM182 884.875v-432.625h32v432.625zM517.125 759.625v-173.625h179.125v173.625zM541.5 735.25h130.375v-124.875h-130.375zM380.25 922.75c0-165.042 0-330.083 0-495.125h587.625v495.125zM437.875 865.25h472.375v-380h-472.375zM47.625 920.75v-493.125h390.25v493.125zM105.125 863.25h275.125v-378h-275.125zM47.625 485.25v-493.25h920.25v493.25zM105.125 427.625h805.125v-378h-805.125z" />
<glyph unicode="&#xe90e;" glyph-name="inventory_nine" d="M376.25 308.25h293.5v284.125c-349.612 19.848-293.5 0.814-293.5-284.125zM365.125 907.625l7.5-900.125 306.875 2.625-7.375 886.375-16.5 0.625zM399.75 872l238.125-8.75 6.875-819-238-2zM90 598.375l-0.75-16.5-12.875-293h891.875v309.5zM122.875 563.875h811v-240.625h-821.625zM67.625 910.375v-915.25h910.125v915.25zM123.625 854.375h798.125v-803.25h-798.125z" />
<glyph unicode="&#xe90f;" glyph-name="inventory_single" d="M86.75 887.25v-873h875.75v873zM164.5 809.5h720.375v-717.5h-720.375z" />
<glyph unicode="&#xe910;" glyph-name="player_head" d="M146 216.25l-91.625-282.875 912.5-2.003-71.25 284.875zM302.625 646l-15.875-414.625h28.5l469.625 0.625-11.875 414zM355.25 591.25h364.625l8.75-304.5-385-0.627z" />
<glyph unicode="&#xe911;" glyph-name="zombie" d="M428.375 922.875l-8.5-404.75 81.625-4.125-5.625-14.25c-289.841 20.179-359.5 23.25-359.5 23.25l-37.875-0.875-0.75-169.25 409.375-32.375-3.125-375h212l34.5 552.25 109.125 3.375 12.125 417.375z" />
<glyph unicode="&#xe912;" glyph-name="blockbench_inverted" d="M574.589 75.135c-4.306 1.585-9.877 6.84-9.97 9.404-0.094 2.601 5.891 23.946 9.314 33.227 2.012 5.451 4.097 11.221 4.635 12.824s2.629 7.376 4.643 12.824c2.017 5.451 4.108 11.484 4.646 13.408s2.053 6.12 3.362 9.328c1.309 3.205 3.42 8.716 4.693 12.243 4.941 13.69 6.943 19.315 7.574 21.278 0.362 1.122 1.568 2.040 2.68 2.040 1.887 0 23.311-5.587 31.36-8.175 8.249-2.654 15.509-0.406 31.979 9.903 3.527 2.207 9.035 5.359 12.243 7.003 5.313 2.724 8.839 4.77 26.816 15.56 3.205 1.925 11.599 6.736 18.653 10.692s15.112 8.529 17.907 10.162c4.155 2.425 5.268 2.674 6.104 1.354 1.862-2.94 1.399-5.963-5.889-38.34-1.372-6.092-3.294-14.748-4.275-19.238-1.921-8.8-4.873-21.928-6.449-28.676-1.88-8.053-6.673-12.822-19.732-19.64-6.682-3.489-15.127-8.209-18.766-10.494s-9.301-5.723-12.588-7.647c-3.287-1.924-8.591-5.141-11.787-7.15-11.837-7.433-83.326-42.361-87.936-42.962-2.699-0.353-6.586 0.099-9.226 1.068zM166.724 212.863c-3.657 1.983-6.72 7.208-6.72 11.466 0 4.156 42.66 95.64 44.81 96.093 0.963 0.202 7.67-1.253 14.906-3.239s14.992-4.105 17.235-4.711c2.243-0.607 8.016-2.211 12.824-3.567s11.631-3.167 15.158-4.027c6.545-1.594 17.616-4.533 23.902-6.339 5.315-1.529 21.883-5.887 22.381-5.887 0.24 0-0.189-1.168-0.951-2.595s-1.786-4.182-2.271-6.12c-2.49-9.957-10.962-27.582-15.574-32.397-5.567-5.81-6.435-6.132-58.964-21.886-6.732-2.021-15.126-4.626-18.653-5.79s-11.921-3.785-18.653-5.822c-6.732-2.037-14.358-4.447-16.946-5.353-5.866-2.057-8.43-2.022-12.479 0.177zM636.283 221.575c-1.924 0.535-5.333 1.501-7.579 2.148-7.105 2.047-12.118 3.472-16.323 4.642-2.243 0.626-9.591 2.777-16.323 4.784s-16.998 4.907-22.806 6.448c-5.81 1.54-12.894 3.538-15.739 4.44s-7.538 2.303-10.424 3.113c-2.887 0.807-6.557 1.872-8.162 2.366s-5.276 1.556-8.162 2.366c-2.887 0.807-7.594 2.213-10.46 3.123s-8.377 2.443-12.243 3.407c-9.659 2.408-15.956 4.194-34.428 9.761-13.115 3.952-16.911 5.063-23.318 6.811-7.916 2.164-26.279 7.301-30.022 8.398-7.315 2.145-11.405 3.322-15.448 4.447-2.243 0.626-9.591 2.797-16.323 4.825-13.248 3.992-13.812 4.153-30.384 8.567-6.13 1.633-13.475 3.709-16.323 4.612s-7.538 2.303-10.424 3.113c-2.887 0.807-6.557 1.872-8.162 2.366s-5.276 1.556-8.162 2.366c-2.887 0.807-7.594 2.213-10.46 3.123s-8.377 2.443-12.243 3.407c-3.866 0.964-8.602 2.212-10.527 2.775s-5.333 1.535-7.579 2.158c-2.243 0.626-9.591 2.797-16.323 4.825s-13.949 4.171-16.032 4.761c-2.084 0.587-5.758 1.625-8.162 2.301s-5.945 1.704-7.869 2.281c-1.924 0.577-6.645 1.894-10.494 2.925-7.509 2.014-13.071 3.571-18.653 5.223-1.924 0.569-5.333 1.546-7.579 2.17s-9.591 2.797-16.323 4.825c-13.248 3.992-13.812 4.153-30.384 8.567-6.13 1.633-13.475 3.709-16.323 4.612s-7.538 2.303-10.424 3.113c-2.887 0.807-6.557 1.872-8.162 2.366s-5.014 1.473-7.579 2.18c-2.565 0.707-7.82 2.274-11.681 3.481s-8.844 2.559-11.077 3.004c-2.234 0.445-5.373 1.24-6.976 1.765s-5.014 1.537-7.579 2.241c-19.357 5.331-25.497 8.172-27.964 12.94-3.995 7.725-0.612 16.059 7.752 19.088 2.779 1.008 49.912 8.186 104.741 15.953s104.932 14.934 111.346 15.928c12.416 1.925 24.078 1.18 41.39-2.643 6.749-1.491 31.558-5.214 111.929-16.803 13.146-1.894 36.495-5.314 51.883-7.596 36.276-5.379 100.824-14.843 131.166-19.228 13.146-1.899 38.328-5.566 55.963-8.147s46.491-6.78 64.126-9.334c17.635-2.551 37.31-5.448 43.723-6.433s18.741-2.819 27.399-4.074c20.024-2.903 74.589-10.879 92.108-13.464 7.376-1.088 13.793-2.567 14.264-3.287 2.374-3.635-0.018-12.097-4.526-16.019-1.189-1.032-55.996-28.969-121.8-62.083-81.012-40.765-120.725-60.167-123.004-60.087-1.849 0.066-4.941 0.556-6.862 1.091zM881.708 395.863c-32.991 4.417-77.796 10.344-127.669 16.883-76.158 9.986-107.404 14.089-137.578 18.075-17.313 2.286-47.351 6.238-66.747 8.779-69.835 9.154-106.343 13.951-137.287 18.038-17.313 2.286-47.063 6.182-66.107 8.656-36.264 4.711-41.29 6.010-45.457 11.741-1.974 2.717-2.005 3.551-0.46 12.243 0.911 5.13 2.157 10.64 2.771 12.243s1.508 5.79 1.989 9.303c0.481 3.513 1.53 8.249 2.328 10.516s1.849 6.991 2.331 10.494c0.482 3.502 1.531 8.223 2.331 10.493s1.849 6.991 2.331 10.494c0.482 3.502 1.531 8.223 2.331 10.494s1.849 6.991 2.331 10.494c0.482 3.502 1.531 8.223 2.331 10.494s1.849 6.991 2.331 10.494c0.482 3.502 1.531 8.223 2.331 10.494s1.849 6.991 2.331 10.494c0.482 3.502 1.531 8.223 2.331 10.494s1.849 6.991 2.331 10.494c0.482 3.502 1.531 8.223 2.331 10.494s1.849 6.991 2.331 10.494c0.482 3.502 1.55 8.281 2.375 10.62s1.88 7.335 2.341 11.1c0.461 3.766 1.337 8.158 1.944 9.761s1.841 7.072 2.739 12.15c2.154 12.177 5.821 19.058 12.315 23.116 5.778 3.61-6.237 2.484 115.279 10.803 33.024 2.261 86.541 5.934 118.924 8.162s85.639 5.89 118.34 8.138c32.705 2.248 89.631 6.165 126.503 8.705 157.164 10.821 140.443 9.961 144.751 7.446 2.102-1.228 4.848-3.989 6.103-6.139 2.51-4.298 2.275-7.104-2.762-32.737-6.736-34.296-8.35-42.567-10.582-54.214-1.351-7.054-3.686-19.122-5.192-26.816-2.903-14.853-5.81-30.030-9.94-51.883-1.393-7.376-3.735-19.441-5.206-26.816s-3.811-19.441-5.202-26.816c-1.39-7.376-3.757-19.703-5.257-27.399s-3.878-20.025-5.281-27.399c-1.403-7.376-3.778-19.703-5.281-27.399s-3.869-20.025-5.262-27.399c-4.61-24.412-6.985-35.523-8.281-38.766-1.635-4.093-2.322-4.076-39.474 0.899z" />
<glyph unicode="&#xe913;" glyph-name="optifine_file" d="M144.495-13.004c-7.007 3.755-15.811 12.563-19.566 19.566-6.5 12.124-6.832 33.283-6.832 438.157 0 468.378-1.24 443.821 23.14 458.77 12.159 7.456 16.823 7.572 266.582 6.624l254.208-0.962 22.429-10.484c18.824-8.799 37.242-25.245 114.576-102.325 98.134-97.816 107.914-110.624 115.386-151.119 2.51-13.605 3.505-127.524 2.84-325.406-0.959-286.179-1.425-305.089-7.763-314.765-3.709-5.663-12.124-13.572-18.694-17.578-11.623-7.086-21.718-7.286-372.756-7.297-342.318-0.016-361.466 0.335-373.549 6.818zM849.909 311.948l-0.959 268.228-237.255 3.74-24.433 24.434-2.169 239.124h-399.708v-803.748h665.479zM293.802 142.786v31.777h-67.292v261.688h67.292v67.292h130.844v-67.292h63.552v-261.688h-63.552v-63.552h-130.844zM424.642 305.403v130.844h-130.844v-261.688h130.844zM555.486 307.273v196.266h261.688v-67.292h-198.135v-63.552h130.844v-67.292h-130.844v-194.396h-63.552zM847.077 650.187c0 7.18-184.425 189.807-191.677 189.807-5.956 0-6.459-7.596-6.459-97.196v-97.196h99.066c75.801 0 99.065 1.076 99.065 4.589z" />
<glyph unicode="&#xe914;" glyph-name="saved" d="M213.333 832c-47.36 0-85.333-38.4-85.333-85.333v-597.333c0-46.933 37.973-85.333 85.333-85.333h597.333c46.933 0 85.333 38.4 85.333 85.333v512l-170.667 170.667h-512zM213.333 746.667h426.667v-170.667h-426.667v170.667zM673 505.083l56.417-45.583-0.25-0.333-239.167-298.917c-0.013-0.021-0.166-0.333-0.167-0.333l-0.25-0.167-26.417-33.083-24.917 28.083c-3.157 2.438-4.729 4.005-6.583 5.833-3.934 3.878-8.256 8.565-13.5 14.333-10.488 11.537-24.064 27.023-37.583 42.667-26.001 30.087-49.883 58.521-51.833 60.833l-1.5 1.667c-0.007 0.009-0.583 0.75-0.583 0.75l54.833 47.417 0.583-0.667 77.333-87.25c3.961 5.054 6.69 8.637 11.333 14.5 22.584 28.52 52.464 65.776 82.417 102.833 59.774 73.951 119.323 146.763 119.583 147.083 0.004 0 0.25 0.333 0.25 0.333z" />
<glyph unicode="&#xe915;" glyph-name="player" d="M369.125 945.5v-279.25l-97.125 17.125-58-329.125 124-21.875 48.125 272.5v-298.25l-55.875-316.25 124.125-21.875 56.625 321h2.75l56.625-321 124 21.875-58 329v285.375l48-272.375 124.125 21.875-58.125 329.125-91.375-16.125v278.25h-289.875z" />
<glyph unicode="&#xe916;" glyph-name="mirror_x" d="M860.39 84.204l-292.395 730.812-63.238-12.415 4.6-688.96 0.23-32.999zM486.244 802.596l-63.238 12.415-292.395-730.812 350.803-3.563 0.23 32.999zM419.443 629.438l-3.22-482.456-189.028 1.953z" />
<glyph unicode="&#xe917;" glyph-name="mirror_y" d="M858.931 812.516l-730.408-292.231 12.412-63.204 721.559 4.826-3.563 350.611zM140.935 438.578l-12.412-63.204 730.408-292.231 3.563 350.611-721.559 4.826zM313.998 371.809l482.188-3.216-1.953-188.924-480.235 192.14z" />
<glyph unicode="&#xe918;" glyph-name="mirror_z" d="M96.503 190.743l789.204 201.005 11.989 43.475-673.881-3.32zM904.588 447.952l35.107 43.475-571.447 201.005-133.945-241.161 30.634-0.159zM768.266 493.876l-447.93 2.212 72.206 129.948z" />
<glyph unicode="&#xe919;" glyph-name="sketchfab" d="M512.19 904.235c-251.841 0-455.966-204.159-455.966-456s204.125-456 455.966-456c251.841 0 455.966 204.159 455.966 456s-204.088 456-455.966 456zM472.552 176.88l-196.536 113.479v228.912l196.536-106.154zM507.57 466.986l-232.555 123.294 232.58 134.292 232.635-134.292zM740.328 289.923l-195.847-113.088v235.376l195.872 105.792z" />
<glyph unicode="&#xe91a;" glyph-name="format_bedrock_legacy" d="M399.938 288l-335.938-95.938 448-192.062 448 192.062-335.938 95.938h-224.125zM192 832v-512h512v512zM256 672l64-64h32l32 32 32-64h32l32 64h32l32 32h64l32-32v-256h-384zM736 776.126v-72.126c87.62-20.259 151.741-95.010 151.814-184.19v-0.008c-0.109-89.159-64.218-163.873-150.472-183.864l-1.342-0.263v-65.986c123.3 16.407 217.588 123.485 217.728 253.204v0.015c-0.139 129.734-94.428 236.811-216.478 253.083l-1.25 0.136zM805.883 613.454l-153.019-97.11 38.981-60.976 153.019 97.11z" />
<glyph unicode="&#xe91b;" glyph-name="crossbow" d="M512 920l-134.858-134.858h101.669v-134.858h-34.24c-134.858 0-269.713 0-404.571-202.287l134.858-134.858 67.429 67.429h202.287v-404.571h134.858v404.571h202.287l67.429-67.429 134.858 134.858c-134.858 202.287-269.713 202.287-404.571 202.287h-33.189v134.858h100.615zM444.571 582.858v-134.858h-269.713c0 0 0 134.858 269.713 134.858zM579.429 582.858c269.713 0 269.713-134.858 269.713-134.858h-269.713z" />
<glyph unicode="&#xe91c;" glyph-name="format_bedrock" d="M399.938 288l-335.938-95.938 448-192.062 448 192.062-335.938 95.938h-224.125zM256 832v-512h512v512h-512zM320 672l64-64h32l32 32 32-64h32l32 64h32l32 32h64l32-32v-256h-384v288z" />
<glyph unicode="&#xe91d;" glyph-name="format_block" d="M355.099 269.874l-309.765-88.542 466.666-200 466.666 200-309.636 88.411-156.426-52.278zM512 248l-266.236 102.671-0.35 331.294 263.72 99.367 269.612-99.367 0.347-331.294z" />
<glyph unicode="&#xe91e;" glyph-name="format_free" d="M512 307.2l-492.8-140.765 492.8-211.235 492.8 211.235z" />
<glyph unicode="&#xe91f;" glyph-name="format_hytale" d="M407.713 284.215l-360.873-102.021 465.16-199.354 465.16 199.354-269.309 76.965-138.439-100.065zM612.456 286.415v-14.147l13.498 10.253zM568.958 574.713l-120.146-0.822-0.754-268.17-109.968 84.054v343.252l-51.828 102.165 160.98 15.113 0.385-171.803 120.546 0.613 0.816 170.844 163.017-15.331-51.408-104.126-0.913-439.617-110.722-83.72z" />
<glyph unicode="&#xe920;" glyph-name="format_java" d="M312.184 248.184l-266.422-66.606 466.24-199.816 466.24 199.816-266.422 66.606c-66.606-66.606-333.028-66.606-399.634 0zM513.040 799.76c-66.606 0-199.816-33.302-199.816-99.908v-333.028c-0.52-150.382 399.634-152.984 399.634 0v32.262c199.816 0 199.816 266.422 0 266.422v34.344c0 66.606-133.212 99.908-199.816 99.908zM513.040 752.799c73.568 0 133.209-25.452 133.212-56.849-0.003-31.397-59.644-56.849-133.212-56.849s-133.209 25.452-133.212 56.849c0.003 31.397 59.644 56.849 133.212 56.849zM712.858 598.904c133.212 0 133.212-133.212 0-133.212z" />
<glyph unicode="&#xe921;" glyph-name="format_optifine" d="M267.243 358.349v35.469h-75.113v292.109h75.113v75.113h146.054v-75.113h70.942v-292.109h-70.942v-70.942h-146.054zM413.297 539.873v146.054h-146.054v-292.109h146.054zM559.351 541.96v219.084h292.109v-75.113h-221.167v-70.942h146.054v-75.113h-146.054v-216.996h-70.942zM512 308.868l-486.956-139.097 486.956-208.731 486.956 208.731z" />
</font>
</defs>
</svg>
