<?xml version="1.0" encoding="UTF-8" standalone="no"?>
<svg
   width="600"
   height="530"
   version="1.1"
   id="svg1"
   sodipodi:docname="Bluesky_Logo.svg"
   inkscape:version="1.3.2 (091e20e, 2023-11-25, custom)"
   xmlns:inkscape="http://www.inkscape.org/namespaces/inkscape"
   xmlns:sodipodi="http://sodipodi.sourceforge.net/DTD/sodipodi-0.dtd"
   xmlns="http://www.w3.org/2000/svg"
   xmlns:svg="http://www.w3.org/2000/svg">
  <defs
     id="defs1" />
  <sodipodi:namedview
     id="namedview1"
     pagecolor="#505050"
     bordercolor="#eeeeee"
     borderopacity="1"
     inkscape:showpageshadow="0"
     inkscape:pageopacity="0"
     inkscape:pagecheckerboard="0"
     inkscape:deskcolor="#505050"
     inkscape:zoom="1.2066038"
     inkscape:cx="222.9398"
     inkscape:cy="273.9093"
     inkscape:window-width="2880"
     inkscape:window-height="1514"
     inkscape:window-x="-11"
     inkscape:window-y="870"
     inkscape:window-maximized="1"
     inkscape:current-layer="svg1" />
  <path
     d="m 208.4474,155.08437 c 38.06406,28.57609 79.00627,86.51651 94.03819,117.61071 15.03306,-31.09191 55.973,-89.03519 94.0382,-117.61071 27.46502,-20.61937 71.96543,-36.57347 71.96543,14.19331 0,10.13881 -5.81298,85.17131 -9.22235,97.35254 -11.85094,42.35039 -55.03536,53.15208 -93.4486,46.61439 67.14561,11.42792 84.22681,49.28133 47.33794,87.13474 -70.05926,71.89102 -100.69552,-18.03773 -108.54921,-41.08075 -1.43907,-4.22433 -2.11248,-6.20052 -2.12238,-4.5201 -0.01,-1.68047 -0.68331,0.29577 -2.12238,4.5201 -7.85026,23.04302 -38.48595,112.97406 -108.54921,41.08075 -36.88944,-37.85341 -19.80881,-75.70911 47.33794,-87.13474 -38.41438,6.53769 -81.59937,-4.26406 -93.4486,-46.61439 -3.40948,-12.18238 -9.22235,-87.21487 -9.22235,-97.35254 0,-50.76678 44.50156,-34.81268 71.96543,-14.19331 z"
     fill="#1185fe"
     id="path1"
     style="fill:#ffffff;fill-opacity:1;stroke-width:0.572426" />
</svg>
