<?xml version="1.0" encoding="UTF-8" standalone="no"?>
<!-- Created with Inkscape (http://www.inkscape.org/) -->

<svg
   xmlns:dc="http://purl.org/dc/elements/1.1/"
   xmlns:cc="http://creativecommons.org/ns#"
   xmlns:rdf="http://www.w3.org/1999/02/22-rdf-syntax-ns#"
   xmlns:svg="http://www.w3.org/2000/svg"
   xmlns="http://www.w3.org/2000/svg"
   xmlns:sodipodi="http://sodipodi.sourceforge.net/DTD/sodipodi-0.dtd"
   xmlns:inkscape="http://www.inkscape.org/namespaces/inkscape"
   width="60cm"
   height="10cm"
   viewBox="0 0 600.00003 99.999996"
   version="1.1"
   id="svg4515"
   inkscape:version="0.92.1 r15371"
   sodipodi:docname="blockbench logo text.svg">
  <defs
     id="defs4509" />
  <sodipodi:namedview
     id="base"
     pagecolor="#131722"
     bordercolor="#666666"
     borderopacity="1.0"
     inkscape:pageopacity="0.71372549"
     inkscape:pageshadow="2"
     inkscape:zoom="0.49497475"
     inkscape:cx="1340.8877"
     inkscape:cy="315.27428"
     inkscape:document-units="mm"
     inkscape:current-layer="flowRoot4483"
     showgrid="false"
     fit-margin-top="1"
     fit-margin-left="0"
     fit-margin-right="0"
     fit-margin-bottom="0"
     inkscape:window-width="2560"
     inkscape:window-height="1377"
     inkscape:window-x="1912"
     inkscape:window-y="-8"
     inkscape:window-maximized="1"
     units="cm"
     inkscape:pagecheckerboard="true" />
  <metadata
     id="metadata4512">
    <rdf:RDF>
      <cc:Work
         rdf:about="">
        <dc:format>image/svg+xml</dc:format>
        <dc:type
           rdf:resource="http://purl.org/dc/dcmitype/StillImage" />
        <dc:title></dc:title>
      </cc:Work>
    </rdf:RDF>
  </metadata>
  <g
     inkscape:label="Ebene 1"
     inkscape:groupmode="layer"
     id="layer1"
     transform="translate(140.5784,-17.878066)">
    <path
       style="fill:#ffffff;fill-opacity:1;stroke:none;stroke-width:0.12966676"
       d="m -29.706378,30.806338 c -1.108416,0.0095 -4.478608,0.254094 -15.402932,1.006311 -13.528999,0.930396 -27.093046,1.865778 -40.456039,2.780744 -13.514111,0.925183 -12.177861,0.799909 -12.820481,1.201381 -0.72216,0.451158 -1.12991,1.216368 -1.36967,2.570669 -1.99992,9.667486 -3.6033,16.604835 -4.89746,22.227725 -0.0682,0.178292 -0.20695,0.790965 -0.30827,1.361499 -0.17162,0.966409 -0.16812,1.0595 0.0513,1.361502 0.46313,0.637473 1.02227,0.781938 5.0553,1.305847 15.287792,1.997832 31.255938,4.107538 45.344555,5.95505 5.5466,0.727165 10.529453,1.386231 14.198515,1.877761 4.131915,0.553537 4.208011,0.555276 4.389927,0.100101 0.144205,-0.360785 0.408278,-1.596476 0.921027,-4.311486 2.115587,-10.956059 4.57156,-23.821746 6.361526,-32.935299 0.559936,-2.850745 0.586147,-3.162738 0.306942,-3.6408 -0.139592,-0.239019 -0.444979,-0.546176 -0.678662,-0.68265 -0.179637,-0.10492 -0.03051,-0.184025 -0.695562,-0.178355 z m -78.356602,35.549657 c -0.53178,-0.0056 -1.03785,0.03293 -1.55562,0.113205 -0.71316,0.110565 -6.28547,0.907666 -12.38305,1.771394 -6.09757,0.863727 -11.33941,1.662051 -11.64854,1.774054 -0.93017,0.337004 -1.30652,1.263644 -0.86215,2.122975 0.27411,0.530058 0.95685,0.846038 3.10973,1.438999 0.28527,0.07857 0.66466,0.190808 0.84296,0.249393 20.15307,5.654742 41.451482,11.891181 60.295045,17.256762 1.057938,0.31769 2.501573,0.87359 3.421419,0.87639 0.695481,-0.18749 4.670132,-2.148525 13.679781,-6.68233 7.318083,-3.682584 13.413769,-6.789515 13.545876,-6.904381 0.501569,-0.436153 0.767523,-1.377495 0.503344,-1.781652 -0.05239,-0.08016 -0.766247,-0.244666 -1.58639,-0.365638 -1.948245,-0.287372 -8.016854,-1.174396 -10.243742,-1.497307 -0.962778,-0.139611 -2.334065,-0.343533 -3.047233,-0.453201 -0.713168,-0.109669 -2.901297,-0.431669 -4.862505,-0.71551 -1.961208,-0.283844 -5.170336,-0.750839 -7.131546,-1.03784 -1.961208,-0.286998 -4.76201,-0.694699 -6.224003,-0.906023 -3.374552,-0.487777 -10.553237,-1.54021 -14.587513,-2.138552 -1.711599,-0.253855 -4.308245,-0.634066 -5.770238,-0.844862 -8.938365,-1.288733 -11.697485,-1.70288 -12.448005,-1.868642 -1.20341,-0.265793 -2.16131,-0.397846 -3.04762,-0.407234 z m -7.45976,14.488741 c -0.0322,-0.0025 -0.0556,-0.0025 -0.069,1.97e-4 -0.23924,0.05056 -4.98368,10.224374 -4.98368,10.686874 0,0.47325 0.34055,1.05441 0.74722,1.27507 0.4503,0.24433 0.73543,0.2483 1.3879,0.0196 1.97221,-0.6137 4.07472,-1.29836 6.03388,-1.88689 5.84201,-1.752106 5.93859,-1.787926 6.55773,-2.434095 0.51284,-0.535232 1.4552,-2.495345 1.73208,-3.602813 0.0539,-0.215625 0.16745,-0.521963 0.25243,-0.680747 0.085,-0.158784 0.13275,-0.288712 0.10599,-0.288712 -3.40893,-0.882314 -6.94805,-1.843256 -10.17594,-2.728317 -0.70404,-0.193083 -1.36318,-0.341253 -1.58867,-0.360137 z m 60.566666,7.942787 c -0.09959,-0.0041 -0.256236,0.06972 -0.544943,0.238373 -0.310789,0.181524 -1.20705,0.690144 -1.991536,1.130159 -2.1351,1.291192 -4.160901,2.633442 -6.418505,3.698922 -1.831887,1.14652 -2.639198,1.39642 -3.556468,1.10127 -0.895077,-0.288 -3.278152,-0.90905 -3.487896,-0.90905 -0.12379,0 -0.257824,0.10199 -0.298017,0.22679 -0.07029,0.21827 -0.292978,0.84383 -0.842391,2.36648 -0.884785,2.27762 -1.646519,4.577513 -2.44474,6.742733 -0.380796,1.03211 -1.046151,3.40583 -1.035749,3.69512 0.01022,0.2852 0.629786,0.86965 1.108687,1.04583 0.29368,0.10803 0.725879,0.15809 1.026064,0.1189 5.578857,-2.25763 9.832203,-5.1055 14.577449,-7.59064 1.452319,-0.758073 1.98535,-1.288573 2.194392,-2.184133 0.175175,-0.75049 0.503582,-2.21066 0.717219,-3.18931 0.108978,-0.49922 0.322753,-1.46199 0.475236,-2.13951 0.810387,-3.600797 0.862055,-3.936929 0.654917,-4.263992 -0.03484,-0.055 -0.07397,-0.0855 -0.133719,-0.08794 z"
       id="path5085"
       inkscape:connector-curvature="0"
       sodipodi:nodetypes="ccccccccccscccccccsscsccccsccccscssscccscscccccccccsssccscccccccccccss" />
    <g
       aria-label="Blockbench"
       transform="matrix(0.26458333,0,0,0.26458333,-98.580477,-4.7513379)"
       style="font-style:normal;font-weight:normal;font-size:853.33337402px;line-height:1.25;font-family:sans-serif;letter-spacing:-20px;word-spacing:0px;fill:#000000;fill-opacity:1;stroke:none"
       id="flowRoot4483">
      <path
         d="m 533.72255,271.50743 q 18.53482,5.16544 29.16956,18.83865 10.63471,13.36937 10.63471,34.03111 0,27.65027 -20.96559,42.53887 -20.66177,14.88862 -60.46599,14.88862 h -101.4856 v -212.6944 h 95.40863 q 36.4619,0 56.21207,14.58476 20.05404,14.58476 20.05404,40.41194 0,16.7117 -7.90006,28.86566 -7.59624,12.15397 -20.66177,18.53479 z M 420.99456,193.72206 v 68.06221 h 62.28907 q 23.39637,0 35.85417,-8.50778 12.76166,-8.81162 12.76166,-25.52333 0,-16.7117 -12.76166,-25.21947 -12.4578,-8.81163 -35.85417,-8.81163 z m 69.88528,163.47084 q 25.82718,0 38.8927,-8.50778 13.06553,-8.50778 13.06553,-26.73872 0,-35.55035 -51.95823,-35.55035 h -69.88528 v 70.79685 z"
         style="font-style:normal;font-variant:normal;font-weight:500;font-stretch:normal;font-size:826.66680908px;line-height:1.25;font-family:Montserrat;-inkscape-font-specification:'Montserrat Medium';letter-spacing:-28.78005028px;fill:#ffffff;fill-opacity:1;stroke-width:0.36755937"
         id="path4499"
         inkscape:connector-curvature="0" />
      <path
         d="m 606.03806,156.34862 h 29.16951 v 225.45606 h -29.16951 z"
         style="font-style:normal;font-variant:normal;font-weight:500;font-stretch:normal;font-size:826.66680908px;line-height:1.25;font-family:Montserrat;-inkscape-font-specification:'Montserrat Medium';letter-spacing:-28.78005028px;fill:#ffffff;fill-opacity:1;stroke-width:0.36755937"
         id="path4501"
         inkscape:connector-curvature="0" />
      <path
         d="m 749.29753,383.62777 q -24.00409,0 -43.14659,-10.63472 -19.14249,-10.63472 -30.08106,-29.16952 -10.6347,-18.83864 -10.6347,-42.53887 0,-23.70024 10.6347,-42.23503 10.93857,-18.83865 30.08106,-29.16952 19.1425,-10.63473 43.14659,-10.63473 24.00409,0 42.84272,10.63473 19.14253,10.33087 29.77722,29.16952 10.93854,18.53479 10.93854,42.23503 0,23.70023 -10.93854,42.53887 -10.63469,18.5348 -29.77722,29.16952 -18.83863,10.63472 -42.84272,10.63472 z m 0,-25.52333 q 15.4963,0 27.65027,-6.98852 12.4578,-7.29239 19.44636,-20.05405 6.98852,-13.06551 6.98852,-29.77721 0,-16.71171 -6.98852,-29.47337 -6.98856,-13.06552 -19.44636,-20.05405 -12.15397,-6.98853 -27.65027,-6.98853 -15.49631,0 -27.95411,6.98853 -12.15398,6.98853 -19.44635,20.05405 -6.98851,12.76166 -6.98851,29.47337 0,16.7117 6.98851,29.77721 7.29237,12.76166 19.44635,20.05405 12.4578,6.98852 27.95411,6.98852 z"
         style="font-style:normal;font-variant:normal;font-weight:500;font-stretch:normal;font-size:826.66680908px;line-height:1.25;font-family:Montserrat;-inkscape-font-specification:'Montserrat Medium';letter-spacing:-28.78005028px;fill:#ffffff;fill-opacity:1;stroke-width:0.36755937"
         id="path4503"
         inkscape:connector-curvature="0" />
      <path
         d="m 932.8075,383.62777 q -24.61177,0 -44.05809,-10.63472 -19.14246,-10.63472 -30.08108,-29.16952 -10.93854,-18.83864 -10.93854,-42.53887 0,-23.70024 10.93854,-42.23503 10.93862,-18.83865 30.08108,-29.16952 19.44632,-10.63473 44.05809,-10.63473 21.87716,0 38.89272,8.81163 17.31942,8.81163 26.73868,25.52333 l -22.18093,14.28091 q -7.59621,-11.54627 -18.83869,-17.3194 -11.2424,-5.77314 -24.91563,-5.77314 -15.80014,0 -28.56181,6.98853 -12.45781,6.98853 -19.75017,20.05405 -6.98851,12.76166 -6.98851,29.47337 0,17.01555 6.98851,30.08106 7.29236,12.76166 19.75017,19.7502 12.76167,6.98852 28.56181,6.98852 13.67323,0 24.91563,-5.77313 11.24248,-5.77313 18.83869,-17.3194 l 22.18093,13.97706 q -9.41926,16.71171 -26.73868,25.82718 -17.01556,8.81162 -38.89272,8.81162 z"
         style="font-style:normal;font-variant:normal;font-weight:500;font-stretch:normal;font-size:826.66680908px;line-height:1.25;font-family:Montserrat;-inkscape-font-specification:'Montserrat Medium';letter-spacing:-28.78005028px;fill:#ffffff;fill-opacity:1;stroke-width:0.36755937"
         id="path4505"
         inkscape:connector-curvature="0" />
      <path
         d="m 1085.5481,306.75393 -33.4234,30.99262 v 44.05813 h -29.1695 V 156.34862 h 29.1695 V 300.9808 l 87.8124,-80.21617 h 35.2465 l -67.7583,66.54297 74.443,94.49708 h -35.8542 z"
         style="font-style:normal;font-variant:normal;font-weight:500;font-stretch:normal;font-size:826.66680908px;line-height:1.25;font-family:Montserrat;-inkscape-font-specification:'Montserrat Medium';letter-spacing:-28.78005028px;fill:#ffffff;fill-opacity:1;stroke-width:0.36755937"
         id="path4507"
         inkscape:connector-curvature="0" />
      <path
         d="m 1284.6969,219.24538 q 23.3963,0 41.9312,10.33087 18.5348,10.33088 28.8656,28.86568 10.6347,18.5348 10.6347,42.84273 0,24.30792 -10.6347,43.14657 -10.3308,18.5348 -28.8656,28.86567 -18.5349,10.33087 -41.9312,10.33087 -17.9271,0 -32.8157,-6.98853 -14.8886,-6.98853 -24.6118,-20.35789 v 25.52333 h -27.9541 V 156.34862 h 29.1695 v 88.72394 q 9.7232,-12.76166 24.3079,-19.14249 14.5848,-6.68469 31.9042,-6.68469 z m -2.4309,138.85906 q 15.4964,0 27.6504,-6.98852 12.4578,-7.29239 19.4463,-20.05405 7.2924,-13.06551 7.2924,-29.77721 0,-16.71171 -7.2924,-29.47337 -6.9885,-13.06552 -19.4463,-20.05405 -12.154,-6.98853 -27.6504,-6.98853 -15.1924,0 -27.6502,6.98853 -12.4578,6.98853 -19.4463,20.05405 -6.9886,12.76166 -6.9886,29.47337 0,16.7117 6.9886,29.77721 6.9885,12.76166 19.4463,20.05405 12.4578,6.98852 27.6502,6.98852 z"
         style="font-style:normal;font-variant:normal;font-weight:500;font-stretch:normal;font-size:826.66680908px;line-height:1.25;font-family:Montserrat;-inkscape-font-specification:'Montserrat Medium';letter-spacing:-28.78005028px;fill:#ffffff;fill-opacity:1;stroke-width:0.36755937"
         id="path4509"
         inkscape:connector-curvature="0" />
      <path
         d="m 1541.3965,302.19621 q 0,3.34234 -0.6078,8.81161 h -130.655 q 2.7346,21.26945 18.5348,34.33496 16.104,12.76166 39.8042,12.76166 28.8657,0 46.4889,-19.44634 l 16.104,18.83864 q -10.9385,12.76167 -27.3464,19.44635 -16.104,6.68468 -36.1581,6.68468 -25.5233,0 -45.2735,-10.33087 -19.7502,-10.63472 -30.6888,-29.47337 -10.6347,-18.83864 -10.6347,-42.53887 0,-23.39639 10.331,-42.23503 10.6346,-18.83865 28.8656,-29.16952 18.5348,-10.63473 41.6273,-10.63473 23.0925,0 41.0197,10.63473 18.2309,10.33087 28.2579,29.16952 10.3309,18.83864 10.3309,43.14658 z m -79.6085,-58.33904 q -20.9656,0 -35.2465,12.76166 -13.9771,12.76167 -16.4078,33.42341 h 103.3087 q -2.4308,-20.3579 -16.7117,-33.11956 -13.9771,-13.06551 -34.9427,-13.06551 z"
         style="font-style:normal;font-variant:normal;font-weight:500;font-stretch:normal;font-size:826.66680908px;line-height:1.25;font-family:Montserrat;-inkscape-font-specification:'Montserrat Medium';letter-spacing:-28.78005028px;fill:#ffffff;fill-opacity:1;stroke-width:0.36755937"
         id="path4511"
         inkscape:connector-curvature="0" />
      <path
         d="m 1657.0152,219.24538 q 30.6888,0 48.6159,17.92711 18.231,17.62325 18.231,51.9582 v 92.67399 h -29.1696 v -89.33165 q 0,-23.39639 -11.2424,-35.2465 -11.2424,-11.85011 -32.208,-11.85011 -23.7002,0 -37.3734,13.97705 -13.6732,13.67322 -13.6732,39.50039 v 82.95082 H 1571.026 V 220.76463 h 27.9541 v 24.30793 q 8.8116,-12.45781 23.7002,-19.14249 15.1925,-6.68469 34.3349,-6.68469 z"
         style="font-style:normal;font-variant:normal;font-weight:500;font-stretch:normal;font-size:826.66680908px;line-height:1.25;font-family:Montserrat;-inkscape-font-specification:'Montserrat Medium';letter-spacing:-28.78005028px;fill:#ffffff;fill-opacity:1;stroke-width:0.36755937"
         id="path4513"
         inkscape:connector-curvature="0" />
      <path
         d="m 1838.9395,383.62777 q -24.6118,0 -44.0581,-10.63472 -19.1425,-10.63472 -30.0811,-29.16952 -10.9386,-18.83864 -10.9386,-42.53887 0,-23.70024 10.9386,-42.23503 10.9386,-18.83865 30.0811,-29.16952 19.4463,-10.63473 44.0581,-10.63473 21.8771,0 38.8927,8.81163 17.3194,8.81163 26.7387,25.52333 l -22.181,14.28091 q -7.5962,-11.54627 -18.8387,-17.3194 -11.2424,-5.77314 -24.9155,-5.77314 -15.8002,0 -28.5618,6.98853 -12.4579,6.98853 -19.7503,20.05405 -6.9885,12.76166 -6.9885,29.47337 0,17.01555 6.9885,30.08106 7.2924,12.76166 19.7503,19.7502 12.7616,6.98852 28.5618,6.98852 13.6731,0 24.9155,-5.77313 11.2425,-5.77313 18.8387,-17.3194 l 22.181,13.97706 q -9.4193,16.71171 -26.7387,25.82718 -17.0156,8.81162 -38.8927,8.81162 z"
         style="font-style:normal;font-variant:normal;font-weight:500;font-stretch:normal;font-size:826.66680908px;line-height:1.25;font-family:Montserrat;-inkscape-font-specification:'Montserrat Medium';letter-spacing:-28.78005028px;fill:#ffffff;fill-opacity:1;stroke-width:0.36755937"
         id="path4515"
         inkscape:connector-curvature="0" />
      <path
         d="m 2015.0765,219.24538 q 30.6888,0 48.6158,17.92711 18.231,17.62325 18.231,51.9582 v 92.67399 h -29.1695 v -89.33165 q 0,-23.39639 -11.2424,-35.2465 -11.2424,-11.85011 -32.208,-11.85011 -23.7003,0 -37.3735,13.97705 -13.6732,13.67322 -13.6732,39.50039 v 82.95082 h -29.1695 V 156.34862 h 29.1695 v 87.2047 q 9.1155,-11.54627 23.7002,-17.9271 14.8887,-6.38084 33.1196,-6.38084 z"
         style="font-style:normal;font-variant:normal;font-weight:500;font-stretch:normal;font-size:826.66680908px;line-height:1.25;font-family:Montserrat;-inkscape-font-specification:'Montserrat Medium';letter-spacing:-28.78005028px;fill:#ffffff;fill-opacity:1;stroke-width:0.36755937"
         id="path4517"
         inkscape:connector-curvature="0" />
    </g>
  </g>
</svg>
