<?xml version="1.0" encoding="UTF-8" standalone="no"?>
<!-- Created with Inkscape (http://www.inkscape.org/) -->

<svg
   xmlns:dc="http://purl.org/dc/elements/1.1/"
   xmlns:cc="http://creativecommons.org/ns#"
   xmlns:rdf="http://www.w3.org/1999/02/22-rdf-syntax-ns#"
   xmlns:svg="http://www.w3.org/2000/svg"
   xmlns="http://www.w3.org/2000/svg"
   xmlns:sodipodi="http://sodipodi.sourceforge.net/DTD/sodipodi-0.dtd"
   xmlns:inkscape="http://www.inkscape.org/namespaces/inkscape"
   width="289.85831mm"
   height="289.85831mm"
   viewBox="0 0 289.85831 289.8583"
   version="1.1"
   id="svg4515"
   inkscape:version="0.92.1 r15371"
   sodipodi:docname="blockbench_inverted.svg">
  <defs
     id="defs4509" />
  <sodipodi:namedview
     id="base"
     pagecolor="#ffffff"
     bordercolor="#666666"
     borderopacity="1.0"
     inkscape:pageopacity="0.0"
     inkscape:pageshadow="2"
     inkscape:zoom="0.35"
     inkscape:cx="307.03432"
     inkscape:cy="535.253"
     inkscape:document-units="mm"
     inkscape:current-layer="layer1"
     showgrid="false"
     fit-margin-top="0"
     fit-margin-left="0"
     fit-margin-right="0"
     fit-margin-bottom="0"
     inkscape:window-width="1920"
     inkscape:window-height="1017"
     inkscape:window-x="-8"
     inkscape:window-y="-8"
     inkscape:window-maximized="1" />
  <metadata
     id="metadata4512">
    <rdf:RDF>
      <cc:Work
         rdf:about="">
        <dc:format>image/svg+xml</dc:format>
        <dc:type
           rdf:resource="http://purl.org/dc/dcmitype/StillImage" />
        <dc:title></dc:title>
      </cc:Work>
    </rdf:RDF>
  </metadata>
  <g
     inkscape:label="Ebene 1"
     inkscape:groupmode="layer"
     id="layer1"
     transform="translate(140.57843,-0.59405263)">
    <path
       style="fill:#ffffffbb;stroke-width:0.35277775"
       d="m 23.288747,258.34267 c -1.30292,-0.47933 -2.98869,-2.06939 -3.01653,-2.84529 -0.0283,-0.7871 1.78215,-7.24535 2.81817,-10.05334 0.60849,-1.64924 1.23961,-3.39549 1.40247,-3.88056 0.16287,-0.48507 0.79516,-2.23132 1.4051,-3.88056 0.60994,-1.64923 1.24266,-3.47486 1.40603,-4.05694 0.16337,-0.58208 0.62107,-1.85208 1.0171,-2.82222 0.39603,-0.97014 1.0351,-2.63702 1.42016,-3.70417 1.49476,-4.1426 2.10053,-5.84436 2.29176,-6.43819 0.10935,-0.33955 0.47438,-0.61736 0.81117,-0.61736 0.57064,0 7.0538,1.69005 9.489,2.47362 2.49556,0.80299 4.69242,0.12266 9.67634,-2.99663 1.06716,-0.6679 2.73403,-1.62148 3.70417,-2.11907 1.60757,-0.82452 2.67444,-1.44367 8.11389,-4.70885 0.97014,-0.58235 3.51014,-2.03828 5.64444,-3.23539 2.13431,-1.19712 4.57237,-2.58064 5.41792,-3.0745 1.25674,-0.73402 1.59384,-0.80877 1.84669,-0.40953 0.563544,0.88982 0.423074,1.80439 -1.78171,11.6009 -0.41485,1.84327 -0.99685,4.46264 -1.29334,5.82084 -0.58124,2.66257 -1.4745,6.63506 -1.95109,8.67688 -0.56873,2.43651 -2.01879,3.87984 -5.97004,5.94231 -2.02222,1.05555 -4.57735,2.4843 -5.67807,3.175 -1.10073,0.69069 -2.81457,1.73205 -3.80854,2.31414 -0.99398,0.58208 -2.59896,1.55554 -3.56664,2.16324 -3.58156,2.24922 -25.21199,12.8172 -26.60684,12.9993 -0.81671,0.10663 -1.99261,-0.0297 -2.79161,-0.32363 z M -100.12144,216.66958 c -1.10641,-0.60033 -2.03291,-2.18126 -2.03291,-3.46882 0,-1.2583 12.907847,-28.93802 13.558747,-29.07552 0.29122,-0.0615 2.32058,0.37931 4.50968,0.97964 2.1891,0.60032 4.5358,1.24169 5.2149,1.42526 0.6791,0.18357 2.42535,0.66928 3.88056,1.07934 1.4552,0.41007 3.51895,0.95846 4.58611,1.21864 1.9799,0.48273 5.33047,1.37148 7.23194,1.91829 1.60796,0.46241 6.6214,1.78096 6.77162,1.78096 0.0728,0 -0.0568,0.35345 -0.28799,0.78545 -0.2312,0.432 -0.54036,1.26544 -0.68703,1.85208 -0.7533,3.01304 -3.31708,8.34594 -4.71236,9.80213 -1.68445,1.75799 -1.94713,1.85549 -17.84118,6.62236 -2.03729,0.61102 -4.57729,1.39936 -5.64445,1.75187 -1.06715,0.35251 -3.60715,1.14538 -5.64444,1.76193 -2.03729,0.61655 -4.34447,1.34546 -5.12707,1.61981 -1.77515,0.6223 -2.55101,0.61132 -3.776127,-0.0534 z m 142.076797,-2.63604 c -0.58209,-0.1616 -1.61396,-0.4539 -2.29306,-0.64955 -2.14965,-0.61932 -3.66628,-1.05074 -4.93889,-1.40491 -0.67909,-0.189 -2.90159,-0.84046 -4.93889,-1.44769 -2.03729,-0.60724 -5.14249,-1.48509 -6.90045,-1.95079 -1.75796,-0.4657 -3.90108,-1.0703 -4.7625,-1.34356 -0.86141,-0.27326 -2.28058,-0.69688 -3.15371,-0.94139 -0.87312,-0.2445 -1.98437,-0.56648 -2.46944,-0.7155 -0.48507,-0.14902 -1.59632,-0.471 -2.46944,-0.7155 -0.8731299,-0.24451 -2.2972699,-0.66982 -3.1647599,-0.94514 -0.86749,-0.27532 -2.53437,-0.73914 -3.70417,-1.0307 -2.92274996,-0.72846 -4.82827,-1.26864 -10.41718,-2.9531 -3.9679101,-1.1959 -5.1168701,-1.53164 -7.0555601,-2.0617 -2.39534,-0.65491 -7.95164,-2.20921 -9.08403,-2.54113 -2.21333,-0.64876 -3.45071,-1.00493 -4.6743,-1.34547 -0.6791,-0.18899 -2.9016,-0.84601 -4.93889,-1.46004 -4.00825,-1.20806 -4.17892,-1.25618 -9.19351,-2.59217 -1.85498,-0.4942 -4.07747,-1.12212 -4.93889,-1.39538 -0.86142,-0.27326 -2.28059,-0.69688 -3.15371,-0.94139 -0.87313,-0.2445 -1.98438,-0.56648 -2.46945,-0.7155 -0.48506,-0.14903 -1.59631,-0.471 -2.46944,-0.71551 -0.87312,-0.2445 -2.29727,-0.66981 -3.16476,-0.94513 -0.86749,-0.27532 -2.53436,-0.73914 -3.70416,-1.0307 -1.16981,-0.29156 -2.60316,-0.66946 -3.18525,-0.83977 -0.58208,-0.17032 -1.61395,-0.4643 -2.29305,-0.65329 -0.6791,-0.189 -2.9016,-0.84602 -4.93889,-1.46005 -2.03729,-0.61402 -4.2201,-1.26209 -4.85069,-1.44014 -0.63059,-0.17806 -1.74184,-0.49144 -2.46945,-0.69641 -0.7276,-0.20497 -1.79916,-0.51542 -2.38125,-0.68988 -0.58208,-0.17447 -2.01083,-0.5727 -3.175,-0.88497 -2.2713,-0.60923 -3.95472,-1.08053 -5.64444,-1.58026 -0.58208,-0.17215 -1.61396,-0.46763 -2.29306,-0.65663 -0.67909,-0.18899 -2.90159,-0.84601 -4.93889,-1.46004 -4.008247,-1.20806 -4.178917,-1.25618 -9.193507,-2.59217 -1.85497,-0.4942 -4.07747,-1.12212 -4.93889,-1.39538 -0.86141,-0.27326 -2.28058,-0.69689 -3.15371,-0.94139 -0.87312,-0.2445 -1.98437,-0.56648 -2.46944,-0.7155 -0.48507,-0.14903 -1.51694,-0.44585 -2.29305,-0.65961 -0.77612,-0.21376 -2.36643,-0.68771 -3.53403,-1.05322 -1.1676,-0.36551 -2.67573,-0.77457 -3.35139,-0.90903 -0.67566,-0.13447 -1.62535,-0.37489 -2.11042,-0.53429 -0.48507,-0.15939 -1.51694,-0.4647 -2.29305,-0.67846 -5.85722,-1.61324 -7.71496,-2.47286 -8.4607,-3.91496 -1.209,-2.33795 -0.18523,-4.8592 2.34542,-5.77607 0.84104,-0.30472 15.10229,-2.47668 31.69166,-4.82658 16.589377,-2.3499 31.749997,-4.51867 33.690277,-4.81948 3.75646,-0.58238 7.2851,-0.35697 12.52361,0.80003 2.04191,0.45098 9.5485,1.57787 33.86666,5.08407 3.97757,0.57349 11.04195,1.60778 15.69861,2.29843 10.97585014,1.62788 30.50653,4.49103 39.6875,5.8181 3.97757,0.57494 11.59757,1.68421 16.93333,2.46503 5.33576,0.78083 14.06701,2.05152 19.40278,2.82376 5.33576,0.77223 11.288884,1.64819 13.229164,1.94656 1.94028,0.29837 5.6709,0.85326 8.29028,1.23309 6.05858,0.87853 22.568949,3.29187 27.869439,4.07371 2.23132,0.32912 4.17358,0.77683 4.31613,0.99491 0.71874,1.09956 -0.005,3.66029 -1.36959,4.84691 -0.35942,0.31251 -16.94342,8.76557 -36.853349,18.78459 -24.512094,12.33491 -36.528604,18.20473 -37.218054,18.18028 -0.56,-0.0199 -1.49444,-0.16833 -2.07652,-0.32994 z m 74.259713,-52.73476 c -9.98223,-1.33728 -23.538809,-3.13003 -38.629159,-5.10839 -23.043694,-3.02106 -32.497964,-4.26311 -41.627774,-5.46881 -5.23875,-0.69185 -14.32719,-1.88732 -20.19653,-2.65661 -21.1298399,-2.76947 -32.1766,-4.22079 -41.53958,-5.45745 -5.23875,-0.69193 -14.23988,-1.87055 -20.00252,-2.61913 -10.97243,-1.42537 -12.49377,-1.81834 -13.7538,-3.55268 -0.59693,-0.82164 -0.60648,-1.07491 -0.13954,-3.70417 0.27566,-1.55222 0.65309,-3.21909 0.83872,-3.70416 0.18564,-0.48507 0.45655,-1.75187 0.60201,-2.81511 0.14546,-1.06324 0.46277,-2.49519 0.70514,-3.18212 0.24236,-0.68692 0.55986,-2.11567 0.70555,-3.175 0.14569,-1.05932 0.46319,-2.48807 0.70556,-3.17499 0.24236,-0.68693 0.55986,-2.11568 0.70555,-3.175 0.1457,-1.05933 0.4632,-2.48808 0.70556,-3.175 0.24236,-0.68693 0.55986,-2.11568 0.70555,-3.175 0.1457,-1.05933 0.4632,-2.48808 0.70556,-3.175 0.24236,-0.68693 0.55986,-2.11568 0.70555,-3.175 0.1457,-1.05932 0.4632,-2.48807 0.70556,-3.175 0.24236,-0.68693 0.55986,-2.11568 0.70555,-3.175 0.1457,-1.05932 0.4632,-2.48807 0.70556,-3.175 0.24236,-0.68692 0.55986,-2.11567 0.70556,-3.175 0.14569,-1.05932 0.46319,-2.48807 0.70555,-3.175 0.24236,-0.68692 0.55986,-2.11567 0.70556,-3.175 0.14569,-1.05932 0.46928,-2.50533 0.71908,-3.21335 0.24981,-0.70802 0.56865,-2.21935 0.70855,-3.35851 0.1399,-1.13916 0.40471,-2.46807 0.58847,-2.95314 0.18377,-0.48507 0.55673,-2.13938 0.82882,-3.67625 0.6523,-3.684577 1.7616,-5.76666 3.72634,-6.994108 1.74835,-1.092263 -1.88703,-0.751586 34.8801201,-3.268683 9.99243,-0.684089 26.1849299,-1.795134 35.9833299,-2.468993 9.7984,-0.673855 25.91153,-1.781866 35.80694,-2.46224 9.89542,-0.680378 27.119794,-1.865584 38.276393,-2.633797 47.55399,-3.27443 42.49493,-3.014193 43.79828,-2.25299 0.63576,0.371298 1.46665,1.207142 1.84644,1.857428 0.75961,1.300638 0.68804,2.149319 -0.83536,9.905195 -2.0383,10.377268 -2.52672,12.879728 -3.20171,16.404158 -0.40876,2.13431 -1.11563,5.78556 -1.57083,8.11389 -0.87859,4.49402 -1.75831,9.08639 -3.00723,15.69861 -0.42145,2.23132 -1.1304,5.88257 -1.57543,8.11389 -0.44503,2.23132 -1.15336,5.88257 -1.57405,8.11389 -0.42069,2.23131 -1.13658,5.96194 -1.59085,8.29027 -0.45427,2.32834 -1.17319,6.05896 -1.5976,8.29028 -0.4244,2.23132 -1.14332,5.96194 -1.59759,8.29028 -0.45428,2.32833 -1.17074,6.05895 -1.59214,8.29027 -1.39502,7.38659 -2.11304,10.74829 -2.50535,11.72986 -0.49494,1.23837 -0.70233,1.23364 -11.94381,-0.27234 z"
       id="path5085"
       inkscape:connector-curvature="0" />
  </g>
</svg>
